<?xml version="1.0" encoding="UTF-8"?>
<svg width="12px" height="12px" viewBox="0 0 12 12" version="1.1" xmlns="http://www.w3.org/2000/svg" xmlns:xlink="http://www.w3.org/1999/xlink">
    <!-- Generator: Sketch 43 (38999) - http://www.bohemiancoding.com/sketch -->
    <title>Rectangle</title>
    <desc>Created with Sketch.</desc>
    <defs>
        <path d="M6.03331175,0 C5.92879155,0 5.71927115,0.08376 5.44627062,0.62256 C4.78968936,1.7934 3.75258736,3.70422 3.75258736,3.70422 C3.75258736,3.70422 1.85646371,4.07202 0.633301357,4.30302 C0.0333002015,4.40166 -0.162720176,4.93554 0.14178041,5.31126 C1.00236207,6.34578 2.524985,8.05386 2.524985,8.05386 C2.524985,8.05386 2.27646452,9.92952 2.13648425,11.20986 C2.09094416,11.70156 2.35050466,11.98368 2.71248536,11.98368 C2.83050559,11.98368 2.95956584,11.95344 3.09252609,11.89098 C4.11912807,11.38236 5.68081108,10.60464 6.03433176,10.42914 C6.38185243,10.60662 7.9279354,11.39676 8.94301736,11.90682 C9.07459761,11.96976 9.20257786,12 9.31909808,12 C9.67705877,12 9.93361926,11.71848 9.88813918,11.22576 C9.75007891,9.94344 9.50413844,8.06478 9.50413844,8.06478 C9.50413844,8.06478 11.0092413,6.35514 11.859743,5.31918 C12.1608236,4.9425 11.9672632,4.40814 11.374282,4.30896 C10.1651597,4.07748 8.2904561,3.7092 8.2904561,3.7092 C8.2904561,3.7092 7.26541413,1.79586 6.61633288,0.62358 C6.38683243,0.19086 6.2113321,0.05208 6.10027188,0.01386 C6.08977186,0.00846 6.06727182,0 6.03331175,0" id="path-1"></path>
    </defs>
    <g id="4-听力做题和报告" stroke="none" stroke-width="1" fill="none" fill-rule="evenodd">
        <g id="4-2-2-听力话题-列表" transform="translate(-217.000000, -110.000000)">
            <g id="滚动" transform="translate(0.000000, 64.000000)">
                <g id="星星" transform="translate(172.000000, 46.000000)">
                    <g id="Rectangle" transform="translate(45.000000, 0.000000)">
                        <mask id="mask-2" fill="white">
                            <use xlink:href="#path-1"></use>
                        </mask>
                        <use id="Mask" fill="#FFAF04" xlink:href="#path-1"></use>
                        <rect fill="#FFC204" mask="url(#mask-2)" x="0" y="0" width="6" height="12"></rect>
                    </g>
                </g>
            </g>
        </g>
    </g>
</svg>