<svg height="20" viewBox="0 0 20 20" width="20" xmlns="http://www.w3.org/2000/svg"><g fill="none" fill-rule="evenodd" transform=""><path d="m10 20c-5.52285714 0-10-4.4771429-10-10 0-5.52285714 4.47714286-10 10-10 5.5228571 0 10 4.47714286 10 10 0 5.5228571-4.4771429 10-10 10z" fill="#f46666"/><path d="m10 8.52316949-2.21864428-2.21864428c-.39854721-.39854721-1.06561652-.40441698-1.47343201.0033985-.4106587.4106587-.40933704 1.06749347-.0033985 1.47343201l2.21864428 2.21864428-2.21864428 2.2186443c-.39854721.3985472-.40441698 1.0656165.0033985 1.473432.4106587.4106587 1.06749347.409337 1.47343201.0033985l2.21864428-2.2186443 2.2186443 2.2186443c.3985472.3985472 1.0656165.404417 1.473432-.0033985.4106587-.4106587.409337-1.0674935.0033985-1.473432l-2.2186443-2.2186443 2.2186443-2.21864428c.3985472-.39854721.404417-1.06561652-.0033985-1.47343201-.4106587-.4106587-1.0674935-.40933704-1.473432-.0033985z" fill="#fff"/></g></svg>