<svg height="50" viewBox="0 0 50 50" width="50" xmlns="http://www.w3.org/2000/svg"><g fill="none" fill-rule="evenodd" transform=""><path d="m25 50c-13.8071429 0-25-11.1928571-25-25s11.1928571-25 25-25 25 11.1928571 25 25-11.1928571 25-25 25z" fill="#52b343"/><path d="m21.1531687 28.9596481-5.7974886-5.9534971c-1.03997-1.0679552-2.7713636-1.0744047-3.835381.018245-1.0714355 1.1002675-1.0719719 2.8560164-.0177669 3.9385897l7.7418295 7.9501595c.5185406.5324943 1.2089781.8010845 1.902874.8011104.7085218.0033291 1.397005-.2694433 1.92364-.8102499l15.4303252-15.84555c1.0398359-1.0678175 1.0551505-2.8550794-.0088669-3.9477292-1.0714355-1.1002675-2.7851606-1.0967264-3.8442809-.0091055z" fill="#fff"/></g></svg>