<?xml version="1.0" encoding="UTF-8"?>
<svg width="6px" height="9px" viewBox="0 0 6 9" version="1.1" xmlns="http://www.w3.org/2000/svg" xmlns:xlink="http://www.w3.org/1999/xlink">
    <!-- Generator: Sketch 42 (36781) - http://www.bohemiancoding.com/sketch -->
    <title>icon/箭头/小右灰</title>
    <desc>Created with Sketch.</desc>
    <defs></defs>
    <g id="Symbols" stroke="none" stroke-width="1" fill="none" fill-rule="evenodd">
        <g id="大组件/列表块" transform="translate(-354.000000, -18.000000)" fill="#8F9DA5">
            <g id="icon/箭头/小右灰">
                <g transform="translate(354.000000, 18.000000)">
                    <g id="Shape">
                        <path d="M0.842427023,9 C0.616199556,9 0.405532051,8.91903067 0.249190468,8.77206772 C-0.0654299637,8.47674483 -0.0557642395,8.00474975 0.270850762,7.71996945 L3.99201128,4.47836534 L0.257104415,1.28500382 C-0.0725607573,1.00284986 -0.0871520875,0.53085477 0.224624277,0.232682027 C0.379852963,0.0847504951 0.598104653,0 0.823342881,0 C1.03458744,0 1.23544495,0.0721776182 1.38898368,0.203363938 L5.74775241,3.929387 C6.00472885,4.14867659 6.07290416,4.49384395 5.91736633,4.7880865 C5.90617552,4.81015889 5.89312988,4.82710898 5.88540142,4.83677613 C5.88185664,4.84260623 5.87822942,4.84869708 5.87468462,4.85488107 C5.85391052,4.89038315 5.8263766,4.93754541 5.77889294,4.98245386 L5.77576033,4.98535959 C5.77285444,4.98806044 5.76996914,4.9905005 5.76731055,4.99277293 C5.7578097,5.00499191 5.74742265,5.01633543 5.7361494,5.02654274 L1.41394145,8.79162553 C1.25931043,8.92601561 1.05641261,9 0.842427023,9 L0.842427023,9 Z"></path>
                    </g>
                </g>
            </g>
        </g>
    </g>
</svg>