<?xml version="1.0" encoding="UTF-8"?>
<svg width="20px" height="20px" viewBox="0 0 20 20" version="1.1" xmlns="http://www.w3.org/2000/svg" xmlns:xlink="http://www.w3.org/1999/xlink">
    <!-- Generator: Sketch 41.2 (35397) - http://www.bohemiancoding.com/sketch -->
    <title>Shape</title>
    <desc>Created with Sketch.</desc>
    <defs></defs>
    <g id="Symbols" stroke="none" stroke-width="1" fill="none" fill-rule="evenodd">
        <g id="icon/tab/社区-正常" fill="#2E3236">
            <g id="气泡-(2)">
                <g id="Group">
                    <path d="M0.0182326014,10.0040279 C0.0182326014,11.9604307 0.5879168,13.7799318 1.55836519,15.3201099 L1.55836519,18.452399 L4.68414644,18.452399 C6.22574554,19.4274056 8.04543808,20 10.0045847,20 C15.5191724,20 19.9881667,15.5242797 19.9881667,10.0040551 C19.9881667,4.48328676 15.5191724,0.00808305854 10.0045847,0.00808305854 C4.49083889,0.00808305854 0.0182326014,4.48328676 0.0182326014,10.0040279 Z M1.99827296,10.0040306 C1.99827296,11.5724745 2.45498756,13.0311647 3.23299396,14.2659221 L3.23299396,16.7770716 L5.73892609,16.7770716 C6.97482279,17.5587323 8.4336664,18.01778 10.00431,18.01778 C14.4253432,18.01778 18.0081263,14.4296046 18.0081263,10.0040524 C18.0081264,5.57806426 14.4253432,1.99030304 10.00431,1.99030304 C5.58395184,1.99030304 1.99827296,5.57806426 1.99827296,10.0040306 Z M7.50937238,8.00895586 C7.08351947,8.00895586 6.73509436,8.14804388 6.46409706,8.42621992 C6.15438585,8.70439596 6.0188872,9.06205087 6.0188872,9.49918465 C6.0188872,9.93631843 6.15438585,10.2939733 6.46409706,10.5721494 C6.73509436,10.8503254 7.08351947,11.0092832 7.50937238,11.0092832 C7.93522528,11.0092832 8.28365039,10.8701951 8.5933616,10.5920191 C8.8643589,10.3138431 9.0192145,9.93631843 9.0192145,9.49918465 C9.0192145,9.06205087 8.8643589,8.70439596 8.5933616,8.42621992 C8.30300734,8.14804388 7.93522528,8.00895586 7.50937238,8.00895586 Z M12.5099179,8.00895586 C12.084065,8.00895586 11.7356399,8.14804388 11.4646426,8.42621992 C11.1549314,8.70439596 11.0194327,9.06205087 11.0194327,9.49918465 C11.0194327,9.93631843 11.1549314,10.2939733 11.4646426,10.5721494 C11.7356399,10.8503254 12.084065,11.0092832 12.5099179,11.0092832 C12.9357708,11.0092832 13.2841959,10.8701951 13.5939071,10.5920191 C13.8649044,10.3138431 14.01976,9.93631843 14.01976,9.49918465 C14.01976,9.06205087 13.8649044,8.70439596 13.5939071,8.42621992 C13.3035528,8.14804388 12.9357708,8.00895586 12.5099179,8.00895586 Z" id="Shape"></path>
                </g>
            </g>
        </g>
    </g>
</svg>