<?xml version="1.0" encoding="UTF-8"?>
<svg width="20px" height="20px" viewBox="0 0 20 20" version="1.1" xmlns="http://www.w3.org/2000/svg" xmlns:xlink="http://www.w3.org/1999/xlink">
    <!-- Generator: Sketch 41.2 (35397) - http://www.bohemiancoding.com/sketch -->
    <title>Shape</title>
    <desc>Created with Sketch.</desc>
    <defs></defs>
    <g id="Symbols" stroke="none" stroke-width="1" fill="none" fill-rule="evenodd">
        <g id="icon/tab/预约-选中" fill="#FE663B">
            <g id="气泡-(2)">
                <g id="Group">
                    <path d="M0.0182326014,10.0029375 C0.0182326014,11.9591268 0.587854654,13.7784294 1.55819718,15.3184395 L1.55819718,18.450387 L4.68363745,18.450387 C6.22506838,19.4252871 8.04456241,19.9978191 10.0034953,19.9978191 C15.5174814,19.9978191 19.9859882,15.522587 19.9859882,10.0029647 C19.9859882,4.48279857 15.5174814,0.00808305854 10.0034953,0.00808305854 C4.49035098,0.00808305854 0.0182326014,4.48279857 0.0182326014,10.0029375 Z M7.50855518,8.00808306 C7.08274873,8.00808306 6.73436163,8.14715591 6.46339389,8.4253016 C6.15371647,8.7034473 6.0182326,9.06106319 6.0182326,9.49814928 C6.0182326,9.93523538 6.15371647,10.2928513 6.46339389,10.570997 C6.73436163,10.8491427 7.08274873,11.0080831 7.50855518,11.0080831 C7.93436163,11.0080831 8.28274873,10.8690102 8.59242615,10.5908645 C8.86339389,10.3127188 9.0182326,9.93523538 9.0182326,9.49814928 C9.0182326,9.06106319 8.86339389,8.7034473 8.59242615,8.4253016 C8.30210357,8.14715591 7.93436163,8.00808306 7.50855518,8.00808306 Z M12.5085552,8.00808306 C12.0827487,8.00808306 11.7343616,8.14715591 11.4633939,8.4253016 C11.1537165,8.7034473 11.0182326,9.06106319 11.0182326,9.49814928 C11.0182326,9.93523538 11.1537165,10.2928513 11.4633939,10.570997 C11.7343616,10.8491427 12.0827487,11.0080831 12.5085552,11.0080831 C12.9343616,11.0080831 13.2827487,10.8690102 13.5924261,10.5908645 C13.8633939,10.3127188 14.0182326,9.93523538 14.0182326,9.49814928 C14.0182326,9.06106319 13.8633939,8.7034473 13.5924261,8.4253016 C13.3021036,8.14715591 12.9343616,8.00808306 12.5085552,8.00808306 Z" id="Shape"></path>
                </g>
            </g>
        </g>
    </g>
</svg>