<?xml version="1.0" encoding="UTF-8"?>
<svg width="18px" height="18px" viewBox="0 0 18 18" version="1.1" xmlns="http://www.w3.org/2000/svg" xmlns:xlink="http://www.w3.org/1999/xlink">
    <!-- Generator: Sketch 41.2 (35397) - http://www.bohemiancoding.com/sketch -->
    <title>手机号</title>
    <desc>Created with Sketch.</desc>
    <defs></defs>
    <g id="0-登录注册和其他" stroke="none" stroke-width="1" fill="none" fill-rule="evenodd">
        <g id="0-0-0-登录" transform="translate(-16.000000, -313.000000)">
            <g id="beijing" transform="translate(14.000000, 312.000000)">
                <g id="Group-2">
                    <g id="手机号" transform="translate(2.000000, 1.000000)">
                        <rect id="Rectangle-3" fill="#FFFFFF" opacity="0.01" x="0" y="0" width="18" height="18"></rect>
                        <path d="M3,1.99508929 C3,0.893231902 3.90195036,0 5.0085302,0 L12.9914698,0 C14.1007504,0 15,0.892622799 15,1.99508929 L15,16.0049107 C15,17.1067681 14.0980496,18 12.9914698,18 L5.0085302,18 C3.8992496,18 3,17.1073772 3,16.0049107 L3,1.99508929 Z M4,2.00087166 C4,1.4481055 4.4556644,1 4.99539757,1 L13.0046024,1 C13.5543453,1 14,1.44463086 14,2.00087166 L14,15.9991283 C14,16.5518945 13.5443356,17 13.0046024,17 L4.99539757,17 C4.44565467,17 4,16.5553691 4,15.9991283 L4,2.00087166 Z M4,12 L14,12 L14,13 L4,13 L4,12 Z M9,16 C9.55228475,16 10,15.5522847 10,15 C10,14.4477153 9.55228475,14 9,14 C8.44771525,14 8,14.4477153 8,15 C8,15.5522847 8.44771525,16 9,16 Z" id="Combined-Shape" fill="#2E3236"></path>
                    </g>
                </g>
            </g>
        </g>
    </g>
</svg>