<?xml version="1.0" encoding="UTF-8"?>
<svg width="20px" height="20px" viewBox="0 0 20 20" version="1.1" xmlns="http://www.w3.org/2000/svg" xmlns:xlink="http://www.w3.org/1999/xlink">
    <!-- Generator: Sketch 42 (36781) - http://www.bohemiancoding.com/sketch -->
    <title>Page 1</title>
    <desc>Created with Sketch.</desc>
    <defs>
        <polygon id="path-1" points="19.9168571 0.0829714286 0 0.0829714286 0 19.9999543 19.9168571 19.9999543"></polygon>
    </defs>
    <g id="Symbols" stroke="none" stroke-width="1" fill="none" fill-rule="evenodd">
        <g id="大组件/标签栏" transform="translate(-178.000000, -7.000000)">
            <g id="标签栏">
                <g id="1" transform="translate(168.000000, 7.000000)">
                    <g id="Page-1" transform="translate(10.000000, 0.000000)">
                        <g id="Group-3">
                            <mask id="mask-2" fill="white">
                                <use xlink:href="#path-1"></use>
                            </mask>
                            <g id="Clip-2"></g>
                            <path d="M9.95845714,1.79024 C5.40862857,1.79024 1.70702857,5.49184 1.70702857,10.0413257 C1.70702857,14.5912686 5.40862857,18.29264 9.95845714,18.29264 C14.5081714,18.29264 18.2095429,14.5912686 18.2095429,10.0413257 C18.2095429,5.49195429 14.5081714,1.79024 9.95845714,1.79024 M9.95845714,19.9999543 C4.46771429,19.9999543 -5.7142857e-05,15.5322971 -5.7142857e-05,10.04144 C-5.7142857e-05,4.55092571 4.46771429,0.0829257143 9.95845714,0.0829257143 C15.4489714,0.0829257143 19.9168571,4.55092571 19.9168571,10.04144 C19.9168571,15.5322971 15.4489714,19.9999543 9.95845714,19.9999543" id="Fill-1" fill="#2E3236" mask="url(#mask-2)"></path>
                        </g>
                        <path d="M14.1563558,11 L9.84296681,11 C9.37762475,11 9,10.6178266 9,10.1468793 L9,4.85380623 C9,4.3821734 9.37762475,4 9.84296681,4 C10.3084218,4 10.6860465,4.3821734 10.6860465,4.85380623 L10.6860465,9.29318731 L14.1563558,9.29318731 C14.6216979,9.29318731 15,9.67627473 15,10.1468793 C15,10.6178266 14.6216979,11 14.1563558,11" id="Fill-4" fill="#2E3236"></path>
                    </g>
                </g>
            </g>
        </g>
    </g>
</svg>