<?xml version="1.0" encoding="UTF-8"?>
<svg width="16px" height="16px" viewBox="0 0 16 16" version="1.1" xmlns="http://www.w3.org/2000/svg" xmlns:xlink="http://www.w3.org/1999/xlink">
    <!-- Generator: Sketch 43.1 (39012) - http://www.bohemiancoding.com/sketch -->
    <title>icon/个人中心/我的积分@2x</title>
    <desc>Created with Sketch.</desc>
    <defs></defs>
    <g id="Symbols" stroke="none" stroke-width="1" fill="none" fill-rule="evenodd">
        <g id="icon/16-16/我的积分">
            <g>
                <rect id="Rectangle-16" fill-opacity="0" fill="#FFFFFF" x="0" y="0" width="16" height="16"></rect>
                <g id="Group-2" fill="#8F9DA5">
                    <path d="M6.5,4 C9.575614,4 12,3.06754385 12,2.5 C12,1.93245615 9.575614,1 6.5,1 C3.424386,1 1,1.93245615 1,2.5 C1,3.06754385 3.424386,4 6.5,4 Z M6.5,5 C2.91014913,5 0,3.88071187 0,2.5 C0,1.11928813 2.91014913,0 6.5,0 C10.0898509,0 13,1.11928813 13,2.5 C13,3.88071187 10.0898509,5 6.5,5 Z" id="Oval" fill-rule="nonzero"></path>
                    <path d="M6,9.49271353 C2.64377614,9.39451644 1.23179995e-15,8.31600572 4.30444289e-31,7 L1,7 C1,7.53640914 3.16568493,8.39879158 6,8.49179558 L6,9.49271353 Z" id="Oval" fill-rule="nonzero"></path>
                    <path d="M6,14.4927135 C2.64377614,14.3945164 1.23179995e-15,13.3160057 4.30444289e-31,12 L1,12 C1,12.5364091 3.16568493,13.3987916 6,13.4917956 L6,14.4927135 Z" id="Oval" fill-rule="nonzero"></path>
                    <rect id="Rectangle-2" x="0" y="2.5" width="1" height="9.5"></rect>
                    <rect id="Rectangle-2" x="12" y="2.5" width="1" height="2.49271353"></rect>
                    <rect id="Rectangle-3" x="7" y="8" width="1" height="6"></rect>
                    <rect id="Rectangle-3" x="15" y="8" width="1" height="6"></rect>
                    <path d="M11.5,9 C12.5767648,9 13.5732054,8.81268496 14.275842,8.50040201 C14.5743437,8.36773462 14.7948814,8.22265074 14.9219725,8.08910529 C14.9881779,8.01953766 15,7.99386076 15,8 C15,8.00613924 14.9881779,7.98046234 14.9219725,7.91089471 C14.7948814,7.77734926 14.5743437,7.63226538 14.275842,7.49959799 C13.5732054,7.18731504 12.5767648,7 11.5,7 C10.4232352,7 9.42679459,7.18731504 8.72415795,7.49959799 C8.42565631,7.63226538 8.20511865,7.77734926 8.07802748,7.91089471 C8.01182207,7.98046234 8,8.00613924 8,8 C8,7.99386076 8.01182207,8.01953766 8.07802748,8.08910529 C8.20511865,8.22265074 8.42565631,8.36773462 8.72415795,8.50040201 C9.42679459,8.81268496 10.4232352,9 11.5,9 Z M11.5,10 C9.01471863,10 7,9.1045695 7,8 C7,6.8954305 9.01471863,6 11.5,6 C13.9852814,6 16,6.8954305 16,8 C16,9.1045695 13.9852814,10 11.5,10 Z" id="Oval-6" fill-rule="nonzero"></path>
                    <path d="M7,11 C7,12.1045695 9.01471863,13 11.5,13 C13.9852814,13 16,12.1045695 16,11 L15,11 C15,11.001157 14.9995801,11.001184 14.9984553,11 L14.9984553,11 C14.9936122,11.0050982 14.9757004,11.0326488 14.9219725,11.0891053 C14.7948814,11.2226507 14.5743437,11.3677346 14.275842,11.500402 C13.5732054,11.812685 12.5767648,12 11.5,12 C10.4232352,12 9.42679459,11.812685 8.72415795,11.500402 C8.42565631,11.3677346 8.20511865,11.2226507 8.07802748,11.0891053 C8.02429957,11.0326488 8.00638781,11.0050982 8.00154466,11 L8.00154467,11 C8.00041992,11.001184 8,11.001157 8,11 L7,11 Z" id="Oval-6" fill-rule="nonzero"></path>
                    <path d="M7,14 C7,15.1045695 9.01471863,16 11.5,16 C13.9852814,16 16,15.1045695 16,14 L15,14 C15,14.001157 14.9995801,14.001184 14.9984553,14 L14.9984553,14 C14.9936122,14.0050982 14.9757004,14.0326488 14.9219725,14.0891053 C14.7948814,14.2226507 14.5743437,14.3677346 14.275842,14.500402 C13.5732054,14.812685 12.5767648,15 11.5,15 C10.4232352,15 9.42679459,14.812685 8.72415795,14.500402 C8.42565631,14.3677346 8.20511865,14.2226507 8.07802748,14.0891053 C8.02429957,14.0326488 8.00638781,14.0050982 8.00154466,14 L8.00154467,14 C8.00041992,14.001184 8,14.001157 8,14 L7,14 Z" id="Oval-6" fill-rule="nonzero"></path>
                </g>
            </g>
        </g>
    </g>
</svg>