<?xml version="1.0" encoding="UTF-8"?>
<svg width="16px" height="16px" viewBox="0 0 16 16" version="1.1" xmlns="http://www.w3.org/2000/svg" xmlns:xlink="http://www.w3.org/1999/xlink">
    <!-- Generator: Sketch 42 (36781) - http://www.bohemiancoding.com/sketch -->
    <title>Shape</title>
    <desc>Created with Sketch.</desc>
    <defs></defs>
    <g id="斩托福" stroke="none" stroke-width="1" fill="none" fill-rule="evenodd">
        <g id="2-0-0-个人中心" transform="translate(-15.000000, -397.000000)" fill="#8F9DA5">
            <g id="Group" transform="translate(0.000000, 338.000000)">
                <g id="Group-2" transform="translate(0.000000, 45.000000)">
                    <path d="M21.333787,19.6503711 C23.2638467,19.6503711 25.2712597,19.2515984 26.4768395,18.4912719 L26.4768395,19.8754561 L27.593746,19.8754561 L27.593746,16.8447839 C27.593746,15.0228358 24.3694332,14.0391966 21.3356736,14.0391966 C18.3019141,14.0391966 15.0757146,15.0228359 15.0757146,16.8447839 L15.0757146,25.1162151 C15.0757146,26.9381631 18.3000274,27.9218024 21.333787,27.9218024 L21.333787,26.8743595 C18.1472075,26.8743595 16.1907344,25.8499568 16.1907344,25.1162151 L16.1907344,22.629646 C17.3963142,23.3882002 19.4018406,23.7887452 21.333787,23.7887452 L21.333787,22.73953 C18.1472075,22.73953 16.1907344,21.7151273 16.1907344,20.9813856 L16.1907344,18.4930442 C17.3963142,19.2515984 19.4037272,19.6503711 21.333787,19.6503711 Z M21.333787,15.0866395 C24.5203665,15.0866395 26.4768395,16.1110422 26.4768395,16.8447839 C26.4768395,17.5785256 24.5203665,18.6029282 21.333787,18.6029282 C18.1472075,18.6029282 16.1907344,17.5785256 16.1907344,16.8447839 C16.1907344,16.1110422 18.1490941,15.0866395 21.333787,15.0866395 Z M26.3372262,20.2246037 C23.5657133,20.2246037 22.1167535,21.2259662 22.1167535,22.2149224 L22.1167535,27.530119 C22.1167535,28.5190752 23.5676,29.5204377 26.3372262,29.5204377 C29.0879858,29.5204377 30.5350589,28.5332538 30.5576989,27.5513869 L30.5595855,27.5513869 L30.5595855,22.2149224 C30.5576989,21.2259662 29.1087391,20.2246037 26.3372262,20.2246037 Z M26.3372262,21.2720466 C28.3861459,21.2720466 29.4426791,21.9331231 29.4426791,22.2149224 C29.4426791,22.4967218 28.3861459,23.1577983 26.3372262,23.1577983 C24.2883065,23.1577983 23.2317733,22.4967218 23.2317733,22.2149224 C23.2317733,21.9331231 24.2883065,21.2720466 26.3372262,21.2720466 Z M26.3372262,28.4729948 C24.2883065,28.4729948 23.2317733,27.8119183 23.2317733,27.530119 L23.2317733,26.2611358 C23.9392732,26.6226896 24.9788264,26.8637256 26.3372262,26.8637256 C27.695626,26.8637256 28.7332925,26.6226896 29.4426791,26.2611358 L29.4426791,27.530119 C29.4426791,27.8119183 28.3861459,28.4729948 26.3372262,28.4729948 Z M26.3372262,25.8145104 C24.2883065,25.8145104 23.2317733,25.1534339 23.2317733,24.8716346 L23.2317733,23.6026513 C23.9392732,23.9642052 24.9788264,24.2052411 26.3372262,24.2052411 C27.695626,24.2052411 28.7332925,23.9642052 29.4426791,23.6026513 L29.4426791,24.8716346 C29.4426791,25.1534339 28.3861459,25.8145104 26.3372262,25.8145104 Z" id="Shape"></path>
                </g>
            </g>
        </g>
    </g>
</svg>