<?xml version="1.0" encoding="UTF-8"?>
<svg width="16px" height="8px" viewBox="0 0 16 8" version="1.1" xmlns="http://www.w3.org/2000/svg" xmlns:xlink="http://www.w3.org/1999/xlink">
    <!-- Generator: Sketch 42 (36781) - http://www.bohemiancoding.com/sketch -->
    <title>眼睛2</title>
    <desc>Created with Sketch.</desc>
    <defs></defs>
    <g id="斩托福" stroke="none" stroke-width="1" fill="none" fill-rule="evenodd">
        <g id="0-0-0-登录" transform="translate(-342.000000, -364.000000)" fill="#8F9DA5">
            <g id="beijing" transform="translate(14.000000, 312.000000)">
                <g id="Group" transform="translate(1.000000, 46.000000)">
                    <g id="眼睛" transform="translate(327.000000, 4.000000)">
                        <g id="眼睛-(1)" transform="translate(0.000000, 2.000000)">
                            <g id="眼睛2">
                                <path d="M15.9001761,0.990263594 C16.0718611,0.713570388 16.0146265,0.344632639 15.7857257,0.129415597 C15.5282075,-0.0858014646 15.1848375,-0.0243050901 14.9845351,0.252388097 C14.9559178,0.283136284 11.7797917,4.31066293 8.00275859,4.31066293 C4.34019469,4.31066293 1.02098205,0.252388097 0.992364738,0.221660139 C0.792062392,-0.0243051098 0.42009384,-0.0550330676 0.19117418,0.160163765 C-0.0377454792,0.375380826 -0.0663439649,0.775046533 0.133939572,1.02101178 C0.19117418,1.11323611 0.877895504,1.94333594 1.96522152,2.86568032 L0.505908124,4.49513181 C0.276988465,4.74109706 0.305605778,5.14076276 0.534525438,5.35597982 C0.591760046,5.47895234 0.734827784,5.5404487 0.877895504,5.5404487 C1.02096322,5.5404487 1.16403096,5.47895234 1.27848139,5.35597982 L2.85224519,3.60355583 C3.59620112,4.15696246 4.48322479,4.67962091 5.45610038,5.04853843 L4.85521215,7.23139654 C4.76937904,7.56958611 4.94106407,7.90777569 5.25579804,8 L5.42748307,8 C5.68500122,8 5.91392086,7.81553113 5.97113666,7.53883792 L6.57202487,5.35597982 C7.02984536,5.44820416 7.51628315,5.50970051 8.00272095,5.50970051 C8.48915875,5.50970051 8.97559654,5.44820416 9.43341703,5.35597982 L10.0343052,7.50808975 C10.0915399,7.78478296 10.349058,7.96925183 10.5779777,7.96925183 C10.6352123,7.96925183 10.6924281,7.96925183 10.7210454,7.93850365 C11.0357981,7.8462591 11.2074832,7.50808975 11.1216501,7.16990017 L10.5207619,5.01779024 C11.4936374,4.64885249 12.3806611,4.12619404 13.1246171,3.57280764 L14.6697635,5.29450368 C14.784214,5.4174762 14.9272817,5.47897255 15.0703494,5.47897255 C15.2134171,5.47897255 15.3564849,5.4174762 15.4709353,5.29450368 C15.6998549,5.04853843 15.6998549,4.67962091 15.4995526,4.43365566 L14.0402392,2.80420417 C15.213436,1.8818598 15.9001761,0.990263594 15.9001761,0.990263594 L15.9001761,0.990263594 Z" id="Shape"></path>
                            </g>
                        </g>
                    </g>
                </g>
            </g>
        </g>
    </g>
</svg>