<?xml version="1.0" encoding="UTF-8"?>
<svg width="16px" height="11px" viewBox="0 0 16 11" version="1.1" xmlns="http://www.w3.org/2000/svg" xmlns:xlink="http://www.w3.org/1999/xlink">
    <!-- Generator: Sketch 42 (36781) - http://www.bohemiancoding.com/sketch -->
    <title>眼睛</title>
    <desc>Created with Sketch.</desc>
    <defs></defs>
    <g id="斩托福" stroke="none" stroke-width="1" fill="none" fill-rule="evenodd">
        <g id="0-0-0-登录" transform="translate(-342.000000, -362.000000)" fill="#8F9DA5">
            <g id="beijing" transform="translate(14.000000, 312.000000)">
                <g id="Group" transform="translate(1.000000, 46.000000)">
                    <g id="眼睛" transform="translate(327.000000, 4.000000)">
                        <g id="Shape">
                            <path d="M8,0 C4.36342857,0 1.23657143,2.2737 0,5.5 C1.23657143,8.7263 4.36342857,11 8,11 C11.6365714,11 14.7634286,8.7263 16,5.5 C14.7634286,2.2737 11.6365714,0 8,0 Z M8,9 C5.75989943,9 4,7.45949595 4,5.5 C4,3.53945395 5.75989943,2 8,2 C10.2401006,2 12,3.54050405 12,5.5 C12,7.46054605 10.2401006,9 8,9 Z M8,4 C6.86642221,4 6,4.65025 6,5.5 C6,6.34975 6.86642221,7 8,7 C9.13357779,7 10,6.34975 10,5.5 C10,4.65025 9.13357779,4 8,4 Z"></path>
                        </g>
                    </g>
                </g>
            </g>
        </g>
    </g>
</svg>