<?xml version="1.0" encoding="UTF-8"?>
<svg width="16px" height="16px" viewBox="0 0 16 16" version="1.1" xmlns="http://www.w3.org/2000/svg" xmlns:xlink="http://www.w3.org/1999/xlink">
    <!-- Generator: Sketch 43.1 (39012) - http://www.bohemiancoding.com/sketch -->
    <title>icon/个人中心/我的资料@2x</title>
    <desc>Created with Sketch.</desc>
    <defs></defs>
    <g id="Symbols" stroke="none" stroke-width="1" fill="none" fill-rule="evenodd">
        <g id="icon/16-16/我的资料">
            <g>
                <rect id="Rectangle-14" fill-opacity="0.01" fill="#FFFFFF" x="0" y="0" width="16" height="16"></rect>
                <g id="我的资料" transform="translate(0.000000, 1.000000)" fill="#8F9DA5">
                    <path d="M1,12.9931545 C1,12.9986802 14.9991283,13 14.9991283,13 C15.0000062,13 15,1.00684547 15,1.00684547 C15,1.00131978 1.00087166,1 1.00087166,1 C0.999993844,1 1,12.9931545 1,12.9931545 Z M0,1.00684547 C0,0.450780073 0.444630861,0 1.00087166,0 L14.9991283,0 C15.5518945,0 16,0.449948758 16,1.00684547 L16,12.9931545 C16,13.5492199 15.5553691,14 14.9991283,14 L1.00087166,14 C0.448105505,14 0,13.5500512 0,12.9931545 L0,1.00684547 Z" id="Rectangle-4" fill-rule="nonzero"></path>
                    <path d="M7.80583596,7.47494084 C8.42210583,7.02667224 8.82474375,6.29455882 8.82474375,5.46838983 C8.82474375,4.10731913 7.73303979,3 6.39117852,3 C5.04930135,3 3.95761329,4.10731913 3.95761329,5.46838983 C3.95761329,6.29455882 4.36025121,7.02667224 4.97650517,7.47494084 C3.81103463,8.01983061 3,9.21588049 3,10.6006063 C3,10.853309 3.20195529,11.0581368 3.45107856,11.0581368 C3.70020182,11.0581368 3.90215711,10.853309 3.90215711,10.6006063 C3.90215711,9.20855484 5.01867796,8.07599932 6.39116261,8.07599932 C7.76358364,8.07599932 8.88012039,9.20855484 8.88012039,10.6006063 C8.88012039,10.853309 9.08207568,11.0581368 9.33119894,11.0581368 C9.58032221,11.0581368 9.7822775,10.853309 9.7822775,10.6006063 C9.78232523,9.21588049 8.97132241,8.01979833 7.80580415,7.47494084 L7.80580415,7.47494084 L7.80583596,7.47494084 Z M6.39119443,3.91514178 C7.23558867,3.91514178 7.92261846,4.61193394 7.92261846,5.4684221 C7.92261846,6.32491025 7.2356364,7.02170242 6.39119443,7.02170242 C5.54675246,7.02170242 4.85981813,6.32491025 4.85981813,5.4684221 C4.85981813,4.61193394 5.54676837,3.91514178 6.39119443,3.91514178 L6.39119443,3.91514178 L6.39119443,3.91514178 Z" id="Shape"></path>
                    <rect id="Rectangle-3" x="10" y="4" width="3.5" height="1" rx="0.5"></rect>
                    <rect id="Rectangle-3" x="10" y="6" width="3.5" height="1" rx="0.5"></rect>
                    <rect id="Rectangle-3" x="10" y="8" width="3.5" height="1" rx="0.5"></rect>
                </g>
            </g>
        </g>
    </g>
</svg>