<?xml version="1.0" encoding="UTF-8"?>
<svg width="32px" height="32px" viewBox="0 0 32 32" version="1.1" xmlns="http://www.w3.org/2000/svg" xmlns:xlink="http://www.w3.org/1999/xlink">
    <!-- Generator: Sketch 42 (36781) - http://www.bohemiancoding.com/sketch -->
    <title>icon</title>
    <desc>Created with Sketch.</desc>
    <defs>
        <circle id="path-1" cx="16" cy="16" r="16"></circle>
        <mask id="mask-2" maskContentUnits="userSpaceOnUse" maskUnits="objectBoundingBox" x="0" y="0" width="32" height="32" fill="white">
            <use xlink:href="#path-1"></use>
        </mask>
    </defs>
    <g id="斩托福" stroke="none" stroke-width="1" fill="none" fill-rule="evenodd">
        <g id="1-0-0-首页" transform="translate(-218.000000, -377.000000)">
            <g id="练习" transform="translate(0.000000, 357.000000)">
                <g id="1" transform="translate(218.000000, 17.000000)">
                    <g id="icon" transform="translate(0.000000, 3.000000)">
                        <use id="Oval" stroke="#58676F" mask="url(#mask-2)" stroke-width="4" xlink:href="#path-1"></use>
                        <path d="M16,8 C12.13425,8 9,11.13425 9,15 L9,20.25 C9,21.21684 9.78316,22 10.75,22 C11.71684,22 12.5,21.21684 12.5,20.25 L12.5,17.625 C12.5,16.65816 11.71684,15.875 10.75,15.875 L10.75,15 C10.75,12.10025 13.10025,9.75 16,9.75 C18.89975,9.75 21.25,12.10025 21.25,15 L21.25,15.875 C20.284,15.875 19.5,16.65816 19.5,17.625 L19.5,20.25 C19.5,21.21684 20.28316,22 21.25,22 C22.21684,22 23,21.21684 23,20.25 L23,15 C23,11.13425 19.86575,8 16,8" id="Page-1" fill=""></path>
                    </g>
                </g>
            </g>
        </g>
    </g>
</svg>