<?xml version="1.0" encoding="UTF-8"?>
<svg width="14px" height="14px" viewBox="0 0 14 14" version="1.1" xmlns="http://www.w3.org/2000/svg" xmlns:xlink="http://www.w3.org/1999/xlink">
    <!-- Generator: Sketch 41.2 (35397) - http://www.bohemiancoding.com/sketch -->
    <title>Group 2</title>
    <desc>Created with Sketch.</desc>
    <defs></defs>
    <g id="Symbols" stroke="none" stroke-width="1" fill="none" fill-rule="evenodd">
        <g id="icon/首页/听力" transform="translate(-9.000000, -9.000000)">
            <g id="Group-2">
                <g transform="translate(9.000000, 9.000000)">
                    <rect id="Rectangle-8" fill-opacity="0.01" fill="#FFFFFF" x="0" y="0" width="14" height="14"></rect>
                    <path d="M2.10001812,6 L0.0708888585,6 C0.556118519,2.60770586 3.47352809,0 7,0 C10.5264719,0 13.4438815,2.60770586 13.9291111,6 L11.8999819,6 C11.4367116,3.71775968 9.41895791,2 7,2 C4.58104209,2 2.56328845,3.71775968 2.10001812,6 Z M14,7 L12,7 C10.8954305,7 10,7.88655484 10,9.00591905 L10,11.9940809 C10,13.1019194 10.8877296,14 12,14 C13.1045695,14 14,13.1134452 14,11.9940809 L14,7 Z M5.96855898e-13,7 L2,7 C3.1045695,7 4,7.88655484 4,9.00591905 L4,11.9940809 C4,13.1019194 3.11227036,14 2,14 C0.8954305,14 5.96855898e-13,13.1134452 5.96855898e-13,11.9940809 L5.96855898e-13,7 Z" id="Combined-Shape" fill="#58676F"></path>
                </g>
            </g>
        </g>
    </g>
</svg>