<?xml version="1.0" encoding="UTF-8"?>
<svg width="16px" height="16px" viewBox="0 0 16 16" version="1.1" xmlns="http://www.w3.org/2000/svg" xmlns:xlink="http://www.w3.org/1999/xlink">
    <!-- Generator: Sketch 43.1 (39012) - http://www.bohemiancoding.com/sketch -->
    <title>icon/个人中心/我的成就@2x</title>
    <desc>Created with Sketch.</desc>
    <defs></defs>
    <g id="Symbols" stroke="none" stroke-width="1" fill="none" fill-rule="evenodd">
        <g id="icon/16-16/我的成就">
            <g>
                <rect id="Rectangle-12" fill-opacity="0" fill="#FFFFFF" x="0" y="0" width="16" height="16"></rect>
                <g id="我的成就" transform="translate(1.000000, 0.000000)" fill="#8F9DA5">
                    <path d="M7,16 C3.6862915,16 1,13.3137085 1,10 C1,6.6862915 3.6862915,4 7,4 C10.3137085,4 13,6.6862915 13,10 C13,13.3137085 10.3137085,16 7,16 Z M7,15 C9.76142375,15 12,12.7614237 12,10 C12,7.23857625 9.76142375,5 7,5 C4.23857625,5 2,7.23857625 2,10 C2,12.7614237 4.23857625,15 7,15 Z" id="Combined-Shape"></path>
                    <path d="M12.4709844,1 L1.52901557,1 L3.37455919,5.21838541 C4.39943119,4.44031057 5.6637917,4 7,4 C8.3362083,4 9.60056881,4.44031057 10.6254408,5.21838541 L12.4709844,1 Z M7,5 C5.38784601,5 3.95389788,5.76298996 3.03955993,6.94756556 L0,0 L14,0 L10.9604401,6.94756556 C10.0461021,5.76298996 8.61215399,5 7,5 Z" id="Triangle" fill-rule="nonzero"></path>
                    <rect id="Rectangle-5" x="5" y="0" width="1" height="5"></rect>
                    <path d="M7,12 C8.1045695,12 9,11.1045695 9,10 C9,8.8954305 8.1045695,8 7,8 C5.8954305,8 5,8.8954305 5,10 C5,11.1045695 5.8954305,12 7,12 Z M7,13 C5.34314575,13 4,11.6568542 4,10 C4,8.34314575 5.34314575,7 7,7 C8.65685425,7 10,8.34314575 10,10 C10,11.6568542 8.65685425,13 7,13 Z" id="Oval-2" fill-rule="nonzero"></path>
                    <rect id="Rectangle-5" x="8" y="0" width="1" height="5"></rect>
                </g>
            </g>
        </g>
    </g>
</svg>