<?xml version="1.0" encoding="UTF-8"?>
<svg width="18px" height="20px" viewBox="0 0 18 20" version="1.1" xmlns="http://www.w3.org/2000/svg" xmlns:xlink="http://www.w3.org/1999/xlink">
    <!-- Generator: Sketch 41.2 (35397) - http://www.bohemiancoding.com/sketch -->
    <title>icon/tab/我的-选中</title>
    <desc>Created with Sketch.</desc>
    <defs></defs>
    <g id="规范" stroke="none" stroke-width="1" fill="none" fill-rule="evenodd">
        <g id="图片icon" transform="translate(-491.000000, -980.000000)">
            <g id="icon" transform="translate(84.000000, 639.000000)">
                <g id="tab" transform="translate(13.000000, 341.000000)">
                    <g id="Group-3" transform="translate(380.000000, 0.000000)">
                        <g id="icon/tab/我的-正常" transform="translate(13.000000, 0.000000)">
                            <g>
                                <rect id="Rectangle" x="0" y="0" width="20" height="20"></rect>
                                <path d="M17.8884246,19.9861122 C17.5595239,19.9483165 13.6156263,20 10.002846,20 C6.39017254,20 2.65858098,19.9404109 2.1174277,19.9861122 C0.853419263,20.0933263 1.00574547,19.4151702 1.00574547,19.4151702 C1.12175267,15.8428837 3.3879522,12.8041768 6.57718874,11.5138174 C4.90833014,10.387853 3.80711633,8.46568867 3.80711633,6.28133718 C3.80711633,2.81225779 6.58103429,-4.97379915e-14 10.0028193,-4.97379915e-14 C13.4247112,-4.97379915e-14 16.1985223,2.81225779 16.1985223,6.28133718 C16.1985223,8.46568867 15.0974153,10.387853 13.4285567,11.5138174 C16.6176864,12.8041768 18.883886,15.8428837 19,19.4151702 C19,19.4151702 18.9219141,20.1055639 17.8884246,19.9861122 Z M7.32917961,7.3354102 C7.43687751,7.55080601 7.6415612,7.8237176 7.96897871,8.08565161 C8.49031308,8.5027191 9.17033556,8.75 10,8.75 C10.8296644,8.75 11.5096869,8.5027191 12.0310213,8.08565161 C12.3584388,7.8237176 12.5631225,7.55080601 12.6708204,7.3354102 C12.8560623,6.96492632 12.7058941,6.51442154 12.3354102,6.32917961 C11.9649263,6.14393767 11.5144215,6.29410593 11.3291796,6.6645898 C11.3118775,6.69919399 11.2353112,6.8012824 11.0939787,6.91434839 C10.8340631,7.1222809 10.4828356,7.25 10,7.25 C9.51716444,7.25 9.16593692,7.1222809 8.90602129,6.91434839 C8.7646888,6.8012824 8.68812249,6.69919399 8.67082039,6.6645898 C8.48557846,6.29410593 8.03507368,6.14393767 7.6645898,6.32917961 C7.29410593,6.51442154 7.14393767,6.96492632 7.32917961,7.3354102 Z" id="Combined-Shape" fill="#FE663B"></path>
                            </g>
                        </g>
                    </g>
                </g>
            </g>
        </g>
    </g>
</svg>