<?xml version="1.0" encoding="UTF-8"?>
<svg width="18px" height="18px" viewBox="0 0 18 18" version="1.1" xmlns="http://www.w3.org/2000/svg" xmlns:xlink="http://www.w3.org/1999/xlink">
    <!-- Generator: Sketch 41.2 (35397) - http://www.bohemiancoding.com/sketch -->
    <title>Group</title>
    <desc>Created with Sketch.</desc>
    <defs></defs>
    <g id="0-登录注册和其他" stroke="none" stroke-width="1" fill="none" fill-rule="evenodd">
        <g id="0-0-0-登录" transform="translate(-16.000000, -360.000000)">
            <g id="beijing" transform="translate(14.000000, 312.000000)">
                <g id="Group" transform="translate(1.000000, 46.000000)">
                    <g id="密码" transform="translate(1.000000, 2.000000)">
                        <g id="Group">
                            <rect id="Rectangle-3" fill="#FFFFFF" opacity="0.01" x="0" y="0" width="18" height="18"></rect>
                            <path d="M15,7 L14,7 L14,5.83333333 C14,3.20988889 12,1 9,1 C6,1 4,3.29583334 4,5.83333333 L4,7 L3,7 L3,5.83333333 C3,2.65261112 5.72840001,0 9,0 C12.2304,0 15,2.54450001 15,5.83333333 L15,7 Z M1,7 L1,16 C1,17.1600769 1.94231578,18 3.10526315,18 L14.8947368,18 C16.0576842,18 17,17.1600769 17,16 L17,7 L1,7 Z M16,16 C16,16.48735 15.4813163,17 15,17 L3,17 C2.51911971,17 2,16.48735 2,16 L2,8 L16,8 L16,16 Z M8,10.9998075 C8,10.4476291 8.44386482,10 9,10 C9.55228475,10 10,10.4437166 10,10.9998075 L10,14.0001925 C10,14.5523709 9.55613518,15 9,15 C8.44771525,15 8,14.5562834 8,14.0001925 L8,10.9998075 Z" id="Combined-Shape" fill="#2E3236"></path>
                        </g>
                    </g>
                </g>
            </g>
        </g>
    </g>
</svg>