<?xml version="1.0" encoding="UTF-8"?>
<svg width="10px" height="12px" viewBox="0 0 10 12" version="1.1" xmlns="http://www.w3.org/2000/svg" xmlns:xlink="http://www.w3.org/1999/xlink">
    <!-- Generator: Sketch 42 (36781) - http://www.bohemiancoding.com/sketch -->
    <title>Clip 2</title>
    <desc>Created with Sketch.</desc>
    <defs>
        <path d="M2.80784359,2.13768069 C2.80784359,0.96195631 3.7697999,0 4.94552428,0 C6.12124865,0 7.08320497,0.96195631 7.08320497,2.13768069 L7.08320497,4.52292737 C7.08320497,5.69865175 6.12124865,6.66060806 4.94552428,6.66060806 C3.7697999,6.66060806 2.80784359,5.69865175 2.80784359,4.52292737 L2.80784359,2.13768069 Z M8.58367867,4.52292737 C8.58367867,4.13101924 8.89364237,3.81036714 9.28537236,3.81036714 C9.67745862,3.81036714 9.97655578,4.13101924 9.97655578,4.52292737 C9.97655578,7.03470218 8.15204531,9.11003385 5.65808451,9.45740696 L5.65808451,10.5748795 L8.23808696,10.5748795 C8.62999508,10.5748795 8.95064719,10.8955316 8.95064719,11.2874398 C8.95064719,11.6793479 8.62999508,12 8.23808696,12 L1.82504489,12 C1.4333149,12 1.1126628,11.6793479 1.1126628,11.2874398 C1.1126628,10.8955316 1.4333149,10.5748795 1.82504489,10.5748795 L4.23296405,10.5748795 L4.23296405,9.45740696 C1.9171433,9.11003385 0,7.03470218 0,4.52292737 C0,4.13101924 0.363049437,3.81036714 0.754957564,3.81036714 C1.14668755,3.81036714 1.46609267,4.13101924 1.46609267,4.52292737 C1.46609267,6.491375 3.05795223,8.08572852 5.02622172,8.08572852 C6.99466936,8.08572852 8.58367867,6.491375 8.58367867,4.52292737 Z" id="path-1"></path>
    </defs>
    <g id="斩托福" stroke="none" stroke-width="1" fill="none" fill-rule="evenodd">
        <g id="2-3-0-口语真题02" transform="translate(-313.000000, -303.000000)">
            <g id="Group-4-Copy" transform="translate(313.000000, 303.000000)">
                <mask id="mask-2" fill="white">
                    <use xlink:href="#path-1"></use>
                </mask>
                <use id="Clip-2" fill="#8F9DA5" xlink:href="#path-1"></use>
            </g>
        </g>
    </g>
</svg>