<?xml version="1.0" encoding="UTF-8"?>
<svg width="32px" height="32px" viewBox="0 0 32 32" version="1.1" xmlns="http://www.w3.org/2000/svg" xmlns:xlink="http://www.w3.org/1999/xlink">
    <!-- Generator: Sketch 42 (36781) - http://www.bohemiancoding.com/sketch -->
    <title>icon</title>
    <desc>Created with Sketch.</desc>
    <defs>
        <circle id="path-1" cx="16" cy="16" r="16"></circle>
        <mask id="mask-2" maskContentUnits="userSpaceOnUse" maskUnits="objectBoundingBox" x="0" y="0" width="32" height="32" fill="white">
            <use xlink:href="#path-1"></use>
        </mask>
    </defs>
    <g id="斩托福" stroke="none" stroke-width="1" fill="none" fill-rule="evenodd">
        <g id="1-0-0-首页" transform="translate(-30.000000, -377.000000)">
            <g id="练习" transform="translate(0.000000, 357.000000)">
                <g id="1" transform="translate(30.000000, 17.000000)">
                    <g id="icon" transform="translate(0.000000, 3.000000)">
                        <use id="Oval" stroke="#58676F" mask="url(#mask-2)" stroke-width="4" xlink:href="#path-1"></use>
                        <g id="Group" transform="translate(10.000000, 9.000000)" fill="">
                            <path d="M0,1.55166667 C0,0.694866667 0.670615385,0 1.49538462,0 L10.5041538,0 C11.3303077,0 12,0.6944 12,1.55166667 L12,12.4483333 C12,13.3051333 11.3289231,14 10.5041538,14 L1.49538462,14 C0.669230769,14 0,13.3056 0,12.4483333 L0,1.55166667 Z M3,3.88873333 C3,3.4594 3.33969231,3.1108 3.74769231,3.1108 L5.48261538,3.1108 C5.89569231,3.1108 6.23076923,3.4566 6.23076923,3.88873333 C6.23076923,4.31853333 5.89107692,4.66666667 5.48261538,4.66666667 L3.74769231,4.66666667 C3.33461538,4.66666667 3,4.32133333 3,3.88873333 L3,3.88873333 Z M3,7 C3,6.5702 3.33969231,6.22206667 3.74769231,6.22206667 L8.25184615,6.22206667 C8.66492308,6.22206667 9,6.5674 9,7 C9,7.42933333 8.66030769,7.77746667 8.25184615,7.77746667 L3.74769231,7.77746667 C3.33461538,7.77746667 3,7.4326 3,7 L3,7 Z M3,10.1108 C3,9.68146667 3.33969231,9.33333333 3.74769231,9.33333333 L8.25184615,9.33333333 C8.66492308,9.33333333 9,9.67866667 9,10.1108 C9,10.5406 8.66030769,10.8887333 8.25184615,10.8887333 L3.74769231,10.8887333 C3.33461538,10.8887333 3,10.5434 3,10.1108 L3,10.1108 Z" id="Fill-1"></path>
                        </g>
                    </g>
                </g>
            </g>
        </g>
    </g>
</svg>