<?xml version="1.0" encoding="UTF-8"?>
<svg width="14px" height="14px" viewBox="0 0 14 14" version="1.1" xmlns="http://www.w3.org/2000/svg" xmlns:xlink="http://www.w3.org/1999/xlink">
    <!-- Generator: Sketch 41.2 (35397) - http://www.bohemiancoding.com/sketch -->
    <title>Group 2</title>
    <desc>Created with Sketch.</desc>
    <defs></defs>
    <g id="Symbols" stroke="none" stroke-width="1" fill="none" fill-rule="evenodd">
        <g id="icon/首页/阅读" transform="translate(-9.000000, -9.000000)">
            <g id="Group-2">
                <g transform="translate(9.000000, 9.000000)">
                    <rect id="Rectangle-8" fill-opacity="0.01" fill="#FFFFFF" x="0" y="0" width="14" height="14"></rect>
                    <path d="M0,1.86400591 C0,1.31050493 0.444127706,0.929449387 0.981368615,1.01127723 L5.48016985,1.69649538 C6.02216477,1.77904731 6.46153846,2.30266552 6.46153846,2.84817105 L6.46153846,12.1370345 C6.46153846,12.6905354 6.01741076,13.071591 5.48016985,12.9897631 L0.981368615,12.304545 C0.439373695,12.2219931 0,11.6983748 0,11.1528693 L0,1.86400591 Z M14,1.86400591 C14,1.31050493 13.5558723,0.929449387 13.0186314,1.01127723 L8.51983015,1.69649538 C7.97783523,1.77904731 7.53846154,2.30266552 7.53846154,2.84817105 L7.53846154,12.1370345 C7.53846154,12.6905354 7.98258924,13.071591 8.51983015,12.9897631 L13.0186314,12.304545 C13.5606263,12.2219931 14,11.6983748 14,11.1528693 L14,1.86400591 Z" id="Combined-Shape" fill="#58676F"></path>
                </g>
            </g>
        </g>
    </g>
</svg>