<?xml version="1.0" encoding="UTF-8"?>
<svg width="16px" height="16px" viewBox="0 0 16 16" version="1.1" xmlns="http://www.w3.org/2000/svg" xmlns:xlink="http://www.w3.org/1999/xlink">
    <!-- Generator: Sketch 43.1 (39012) - http://www.bohemiancoding.com/sketch -->
    <title>icon/个人中心/我的练习记录@2x</title>
    <desc>Created with Sketch.</desc>
    <defs></defs>
    <g id="Symbols" stroke="none" stroke-width="1" fill="none" fill-rule="evenodd">
        <g id="icon/16-16/我的练习记录">
            <g>
                <rect id="Rectangle-16" fill-opacity="0" fill="#FFFFFF" x="0" y="0" width="16" height="16"></rect>
                <g id="Group-5" fill="#8F9DA5">
                    <path d="M13,5.07823493 L13,1.00087166 C13,0.444630861 12.5529553,0 12.0014977,0 L0.998502329,0 C0.447489426,0 0,0.448105505 0,1.00087166 L0,14.9991283 C0,15.5553691 0.44704472,16 0.998502329,16 L12.0014977,16 C12.5525106,16 13,15.5518945 13,14.9991283 L13,9.42574079 L12,10.4257408 L12,14.5017326 C12,14.7769181 11.7702494,15 11.4987692,15 L1.50123084,15 C1.22440869,15 1,14.7800934 1,14.5017326 L1,1.49826741 C1,1.22308192 1.22975063,1 1.50123084,1 L11.4987692,1 C11.7755913,1 12,1.21990657 12,1.49826741 L12,6.07823493 L13,5.07823493 Z" id="Combined-Shape"></path>
                    <rect id="Rectangle-10" x="2.12479382" y="3" width="9" height="1" rx="0.5"></rect>
                    <path d="M7.14876855,12.8353937 C6.94850865,12.6354732 6.95223834,12.3076147 7.14902042,12.1111662 L15.1257743,4.14793274 C15.3261733,3.94787341 15.6568283,3.95360764 15.8512315,4.14768129 C16.0514913,4.34760176 16.0477617,4.67546023 15.8509796,4.87190877 L7.87422567,12.8351422 C7.67382666,13.0352015 7.34317171,13.0294673 7.14876855,12.8353937 Z" id="Rectangle-10"></path>
                    <rect id="Rectangle-10" x="2.12479382" y="6" width="6.87520618" height="1" rx="0.5"></rect>
                    <rect id="Rectangle-10" x="2.12479382" y="9" width="4.87520618" height="1" rx="0.5"></rect>
                </g>
            </g>
        </g>
    </g>
</svg>