<?xml version="1.0" encoding="UTF-8"?>
<svg width="16px" height="16px" viewBox="0 0 16 16" version="1.1" xmlns="http://www.w3.org/2000/svg" xmlns:xlink="http://www.w3.org/1999/xlink">
    <!-- Generator: Sketch 42 (36781) - http://www.bohemiancoding.com/sketch -->
    <title>Group</title>
    <desc>Created with Sketch.</desc>
    <defs></defs>
    <g id="斩托福" stroke="none" stroke-width="1" fill="none" fill-rule="evenodd">
        <g id="2-0-0-个人中心" transform="translate(-15.000000, -487.000000)" fill="#8F9DA5">
            <g id="Group" transform="translate(0.000000, 338.000000)">
                <g id="Group-2" transform="translate(0.000000, 135.000000)">
                    <g id="Group" transform="translate(15.000000, 14.000000)">
                        <path d="M14.448,4.40681303 L13.3686486,4.40681303 L13.3686486,2.01542099 C13.3686486,1.49168637 13.0273153,1.0667696 12.6121802,1.0667696 L3.3685045,1.0667696 C2.95336937,1.0667696 2.61203604,1.49168637 2.61203604,2.01542099 L2.61203604,4.40681303 L1.53268468,4.40681303 L1.53268468,1.81778528 C1.53268468,0.81972497 2.2338018,0.0094185766 3.09174775,0.0094185766 L12.8889369,0.0094185766 C13.7468829,0.0094185766 14.448,0.81972497 14.448,1.81778528 L14.448,4.40681303 Z" id="Shape"></path>
                        <path d="M14.3280721,15.9981472 L13.0734414,15.9981472 C12.1601441,15.9981472 11.4221261,15.1680772 11.4221261,14.1502533 L11.4221261,14.1304897 L4.55855856,14.1304897 L4.55855856,14.1502533 C4.55855856,15.1680772 3.81131532,15.9981472 2.90724324,15.9981472 L1.65261261,15.9981472 C0.739315315,15.9981472 0.0012972973,15.1680772 0.0012972973,14.1502533 L0.0012972973,5.81002654 C0.0012972973,4.79220265 0.656288288,3.96213269 1.56036036,3.96213269 L2.72273874,3.96213269 C4.15264865,3.96213269 4.55855856,4.79220265 4.55855856,5.81002654 L4.55855856,9.16983353 L11.4129009,9.15995175 L11.4221261,5.81002654 C11.4221261,4.79220265 11.9940901,3.97201448 13.1749189,3.97201448 L14.5218018,3.97201448 C15.4350991,3.97201448 15.9886126,4.80208444 15.9886126,5.81990832 L15.9886126,14.1601351 C15.9793874,15.1680772 15.2413694,15.9981472 14.3280721,15.9981472 L14.3280721,15.9981472 Z M3.59913514,13.0434934 L12.3723243,13.0434934 L12.3723243,13.7352183 C12.3723243,14.2194258 12.7136577,14.6146972 13.138018,14.6146972 L14.2634955,14.6146972 C14.6878559,14.6146972 15.0291892,14.2194258 15.0291892,13.7352183 L15.0291892,6.23494331 C15.0291892,5.75073583 14.6878559,5.35546441 14.2634955,5.35546441 L13.138018,5.35546441 C12.7136577,5.35546441 12.3723243,5.75073583 12.3723243,6.23494331 L12.3630991,10.3161206 L3.59913514,10.3260024 L3.59913514,6.23494331 C3.59913514,5.75073583 3.2578018,5.35546441 2.83344144,5.35546441 L1.70796396,5.35546441 C1.2836036,5.35546441 0.94227027,5.75073583 0.94227027,6.23494331 L0.94227027,13.7352183 C0.94227027,14.2194258 1.2836036,14.6146972 1.70796396,14.6146972 L2.83344144,14.6146972 C3.2578018,14.6146972 3.59913514,14.2194258 3.59913514,13.7352183 L3.59913514,13.0434934 L3.59913514,13.0434934 Z" id="Shape"></path>
                    </g>
                </g>
            </g>
        </g>
    </g>
</svg>