<?xml version="1.0" encoding="UTF-8"?>
<svg width="32px" height="32px" viewBox="0 0 32 32" version="1.1" xmlns="http://www.w3.org/2000/svg" xmlns:xlink="http://www.w3.org/1999/xlink">
    <!-- Generator: Sketch 42 (36781) - http://www.bohemiancoding.com/sketch -->
    <title>icon</title>
    <desc>Created with Sketch.</desc>
    <defs>
        <circle id="path-1" cx="16" cy="16" r="16"></circle>
        <mask id="mask-2" maskContentUnits="userSpaceOnUse" maskUnits="objectBoundingBox" x="0" y="0" width="32" height="32" fill="white">
            <use xlink:href="#path-1"></use>
        </mask>
    </defs>
    <g id="斩托福" stroke="none" stroke-width="1" fill="none" fill-rule="evenodd">
        <g id="1-0-0-首页" transform="translate(-30.000000, -450.000000)">
            <g id="练习" transform="translate(0.000000, 357.000000)">
                <g id="1" transform="translate(30.000000, 90.000000)">
                    <g id="icon" transform="translate(0.000000, 3.000000)">
                        <use id="Oval" stroke="#58676F" mask="url(#mask-2)" stroke-width="4" xlink:href="#path-1"></use>
                        <path d="M12.9377333,22.1338 C13.0100667,22.1338 13.0828667,22.1165333 13.1482,22.0806 L17.1377333,19.9227333 L18.4612,19.9227333 C20.9214667,19.9227333 23,17.7742 23,15.2308667 L23,14.4221333 C23,11.9838 20.9639333,10 18.4612,10 L13.5392667,10 C11.0360667,10 9,11.9838 9,14.4221333 L9,15.2308667 C9,17.3383333 10.3916,19.0309333 12.5004667,19.5433333 L12.5004667,21.7026 C12.5004667,21.8547333 12.5816667,21.9956667 12.7146667,22.0736 C12.7832667,22.1137333 12.8602667,22.1338 12.9377333,22.1338" id="Fill-1" fill=""></path>
                    </g>
                </g>
            </g>
        </g>
    </g>
</svg>