<?xml version="1.0" encoding="UTF-8"?>
<svg width="10px" height="10px" viewBox="0 0 10 10" version="1.1" xmlns="http://www.w3.org/2000/svg" xmlns:xlink="http://www.w3.org/1999/xlink">
    <!-- Generator: Sketch 41.2 (35397) - http://www.bohemiancoding.com/sketch -->
    <title>其他/勋章</title>
    <desc>Created with Sketch.</desc>
    <defs>
        <circle id="path-1" cx="5" cy="5" r="5"></circle>
    </defs>
    <g id="2-个人中心" stroke="none" stroke-width="1" fill="none" fill-rule="evenodd">
        <g id="2-4-1-我的资料-我的成就" transform="translate(-136.000000, -161.000000)">
            <g id="我的积分" transform="translate(0.000000, 64.000000)">
                <g id="信息" transform="translate(136.000000, 96.000000)">
                    <g id="Group-6">
                        <g id="icon/其他/勋章" transform="translate(0.000000, 1.000000)">
                            <g>
                                <g id="icon/其他/积分">
                                    <mask id="mask-2" fill="white">
                                        <use xlink:href="#path-1"></use>
                                    </mask>
                                    <use id="Mask" fill="#FFCD04" xlink:href="#path-1"></use>
                                    <rect id="Rectangle-2" fill="#FFAF04" mask="url(#mask-2)" x="5" y="0" width="5" height="10"></rect>
                                </g>
                                <path d="M5,7 L3.09109063,8.00357305 C2.84685284,8.13197645 2.68714286,8.01285587 2.73331772,7.74363581 L3.09788697,5.61803399 L1.55354685,4.11267442 C1.35595432,3.92006931 1.41989163,3.73136582 1.69020394,3.69208714 L3.8244295,3.38196601 L4.77888418,1.44802959 C4.90100308,1.20058968 5.10022848,1.20308508 5.22111582,1.44802959 L6.1755705,3.38196601 L8.30979606,3.69208714 C8.58286221,3.73176597 8.64205298,3.92201171 8.44645315,4.11267442 L6.90211303,5.61803399 L7.26668228,7.74363581 C7.31332755,8.01559859 7.15068405,8.13068152 6.90890937,8.00357305 L5,7 Z" id="Star" fill="#FFFFFF"></path>
                            </g>
                        </g>
                    </g>
                </g>
            </g>
        </g>
    </g>
</svg>
