<?xml version="1.0" encoding="UTF-8"?>
<svg width="50px" height="50px" viewBox="0 0 50 50" version="1.1" xmlns="http://www.w3.org/2000/svg" xmlns:xlink="http://www.w3.org/1999/xlink">
    <!-- Generator: Sketch 43.2 (39069) - http://www.bohemiancoding.com/sketch -->
    <title>Group</title>
    <desc>Created with Sketch.</desc>
    <defs></defs>
    <g id="0-登录注册和其他" stroke="none" stroke-width="1" fill="none" fill-rule="evenodd">
        <g id="0-0-1-绑定页面-copy" transform="translate(-163.000000, -109.000000)">
            <g id="icon_保存" transform="translate(163.000000, 109.000000)">
                <g id="Group">
                    <path d="M25,50 C11.1928571,50 0,38.8071429 0,25 C0,11.1928571 11.1928571,0 25,0 C38.8071429,0 50,11.1928571 50,25 C50,38.8071429 38.8071429,50 25,50 Z" id="icon_修改" fill="#52B343"></path>
                    <path d="M21.1531687,28.9596481 L15.3556801,23.006151 C14.3157101,21.9381958 12.5843165,21.9317463 11.5202991,23.024396 C10.4488636,24.1246635 10.4483272,25.8804124 11.5025322,26.9629857 L19.2443617,34.9131452 C19.7629023,35.4456395 20.4533398,35.7142297 21.1472357,35.7142556 C21.8557575,35.7175847 22.5442407,35.4448123 23.0708757,34.9040057 L38.5012009,19.0584557 C39.5410368,17.9906382 39.5563514,16.2033763 38.492334,15.1107265 C37.4208985,14.010459 35.7071734,14.0140001 34.6480531,15.101621 L21.1531687,28.9596481 L21.1531687,28.9596481 Z" id="icon_select" fill="#FFFFFF"></path>
                </g>
            </g>
        </g>
    </g>
</svg>