<?xml version="1.0" encoding="UTF-8"?>
<svg width="14px" height="14px" viewBox="0 0 14 14" version="1.1" xmlns="http://www.w3.org/2000/svg" xmlns:xlink="http://www.w3.org/1999/xlink">
    <!-- Generator: Sketch 41.2 (35397) - http://www.bohemiancoding.com/sketch -->
    <title>Group 2</title>
    <desc>Created with Sketch.</desc>
    <defs></defs>
    <g id="Symbols" stroke="none" stroke-width="1" fill="none" fill-rule="evenodd">
        <g id="icon/首页/写作" transform="translate(-9.000000, -9.000000)">
            <g id="Group-2">
                <g transform="translate(9.000000, 9.000000)">
                    <rect id="Rectangle-8" fill-opacity="0.01" fill="#FFFFFF" x="0" y="0" width="14" height="14"></rect>
                    <path d="M7.87626536,1.31065593 L8.7696848,0.423764608 C9.33110286,-0.13299051 10.231983,-0.142316392 10.7817437,0.402781375 L13.5683171,3.16604003 C14.1180778,3.71160409 14.1082856,4.60502352 13.5464012,5.16177864 L12.6525155,6.04820367 L7.87626536,1.31065593 Z M12.0794401,6.61708243 L5.41190121,13.2305312 C5.29113105,13.3499025 5.15404059,13.4431613 5.00948943,13.5121728 C4.74649957,13.7900841 4.37812726,13.9686747 3.96825477,13.9728714 L1.40690145,13.9999164 C0.621662241,14.0083097 -0.00876734005,13.3834757 9.22472527e-05,12.6047646 L0.0304013617,9.78182027 C0.0341317143,9.46100996 0.149306349,9.16771099 0.333958801,8.92850213 C0.404369205,8.77089473 0.504156136,8.62261322 0.635184769,8.49251717 L7.30318995,1.8790684 L12.0794401,6.61708243 Z" id="Fill-1" fill="#58676F"></path>
                </g>
            </g>
        </g>
    </g>
</svg>