<svg viewBox="0 0 14 14" xmlns="http://www.w3.org/2000/svg"><g fill-rule="evenodd" transform=""><path d="m6.9125 7.4375c-2.0125 0-3.675-1.6625-3.675-3.675 0-2.1 1.6625-3.7625 3.675-3.7625s3.675 1.6625 3.675 3.675c0 2.1-1.6625 3.7625-3.675 3.7625zm0-6.5625c-1.575 0-2.8875 1.225-2.8875 2.8875 0 1.575 1.3125 2.8875 2.8875 2.8875s2.8875-1.3125 2.8875-2.8875c0-1.6625-1.3125-2.8875-2.8875-2.8875z"/><path d="m.4375 13.9125c-.2625 0-.4375-.175-.4375-.4375 0-3.85 3.15-6.9125 7-6.9125 1.75 0 3.4125.6125 4.725 1.8375.175.175.175.4375 0 .6125s-.4375.175-.6125 0c-1.1375-1.05-2.625-1.575-4.1125-1.575-3.325 0-6.125 2.7125-6.125 6.125 0 .175-.175.35-.4375.35z"/><path d="m13.5625 11.025h-4.55c-.2625 0-.4375-.175-.4375-.4375s.175-.4375.4375-.4375h4.55c.2625 0 .4375.175.4375.4375s-.2625.4375-.4375.4375zm0 2.975h-4.55c-.2625 0-.4375-.175-.4375-.4375s.175-.4375.4375-.4375h4.55c.2625 0 .4375.175.4375.4375s-.2625.4375-.4375.4375z"/></g></svg>