<?xml version="1.0" encoding="UTF-8"?>
<svg width="56px" height="56px" viewBox="0 0 56 56" version="1.1" xmlns="http://www.w3.org/2000/svg" xmlns:xlink="http://www.w3.org/1999/xlink">
    <!-- Generator: Sketch 46.1 (44463) - http://www.bohemiancoding.com/sketch -->
    <title>Group</title>
    <desc>Created with Sketch.</desc>
    <defs></defs>
    <g id="九路泊车视觉设计" stroke="none" stroke-width="1" fill="none" fill-rule="evenodd">
        <g id="1-0资产首页" transform="translate(-38.000000, -424.000000)">
            <g id="明细-(2)" transform="translate(39.000000, 425.000000)">
                <g id="Group">
                    <path d="M36.6722646,16.0052922 L19.5239338,16.0052922 C18.6924278,16.0052922 18.0150298,16.6826902 18.0150298,17.5141963 L18.0150298,39.3128644 C18.0150298,39.6916574 18.3221022,39.9987299 18.7008953,39.9987299 C19.0796883,39.9987299 19.3867607,39.6916574 19.3867607,39.3128644 L19.3867607,39.2197222 C20.4468886,37.9597619 21.5883043,36.8285072 22.0336935,36.5998853 C22.3351356,36.8014112 22.9261654,37.5719515 23.2563969,37.9987122 C23.9896803,38.9521499 24.3927321,39.4771334 24.9600529,39.4771334 C25.4630209,39.4771334 25.8203484,39.0740816 26.7754796,37.908957 C27.0701477,37.5516295 27.5172304,37.0097111 27.8102051,36.71843 C27.9609261,36.9030209 28.1556781,37.1722867 28.3080926,37.3873605 C29.0464564,38.411925 29.8102227,39.4703594 30.7619669,39.4771334 L30.7670474,39.4771334 C31.6154884,39.4771334 32.5079603,38.599903 33.6798589,37.3636516 C33.9000132,37.1316428 34.1743594,36.8403616 34.3724983,36.6523837 C34.8788534,37.0994664 35.9101918,38.2070121 36.8060507,39.2264961 L36.8060507,39.3128644 C36.8060507,39.6916574 37.1131232,39.9987299 37.4919162,39.9987299 C37.8707093,39.9987299 38.1777817,39.6916574 38.1777817,39.3128644 L38.1777817,17.5141963 C38.1782311,17.1144591 38.019867,16.7309156 37.7375277,16.4479411 C37.4551884,16.1649667 37.0720018,16.0057411 36.6722646,16.0052922 L36.6722646,16.0052922 Z M34.2725821,35.1502536 C33.8458214,35.2061389 33.4986549,35.5566924 32.6840838,36.4203749 C32.1828093,36.9504388 31.1413098,38.0512106 30.7839824,38.1037089 C30.4723793,38.0393561 29.7644983,37.0554355 29.4241058,36.5863374 C28.8246086,35.7497508 28.4622007,35.2467828 27.9202822,35.2044454 C27.3123175,35.1417861 26.7653186,35.7632988 25.7153517,37.0368071 C25.4884234,37.3145402 25.1819008,37.6888026 24.9566659,37.9292789 C24.768688,37.7175921 24.5265182,37.399215 24.3453142,37.1621257 C23.4172789,35.9546637 22.7991533,35.2213804 22.0760309,35.2010584 C21.4951621,35.2078324 20.5976097,35.849667 19.3884542,37.1401103 L19.3884542,17.5141963 C19.3884542,17.4396825 19.4494201,17.3770232 19.5256273,17.3770232 L36.6722646,17.3770232 C36.7084914,17.3770203 36.7432103,17.3915263 36.7686669,17.4173011 C36.7941235,17.4430759 36.808197,17.4779723 36.8077442,17.5141963 L36.8077442,37.1655127 C34.9076428,35.0977552 34.5875722,35.1180772 34.2725821,35.1502536 L34.2725821,35.1502536 Z" id="Shape" fill="#4AB3E2"></path>
                    <path d="M33.6646174,20.3558809 L22.5298875,20.3558809 C22.1510945,20.3558809 21.8440221,20.6629534 21.8440221,21.0417464 C21.8440221,21.4205395 22.1510945,21.7276119 22.5298875,21.7276119 L33.6646174,21.7276119 C34.0456538,21.7276119 34.3504829,21.4210893 34.3504829,21.0417464 C34.3504829,20.6624035 34.0456538,20.3558809 33.6646174,20.3558809 L33.6646174,20.3558809 Z M28.4452657,24.8792062 L22.5298875,24.8792062 C22.1510945,24.8792062 21.8440221,25.1862786 21.8440221,25.5650717 C21.8440221,25.9438647 22.1510945,26.2509372 22.5298875,26.2509372 L28.4452657,26.2509372 C28.6903019,26.2509372 28.9167246,26.1202119 29.0392427,25.9080044 C29.1617607,25.6957969 29.1617607,25.4343464 29.0392427,25.2221389 C28.9167246,25.0099314 28.6903019,24.8792062 28.4452657,24.8792062 L28.4452657,24.8792062 Z M28.4452657,27.663312 L22.5298875,27.663312 C22.2848514,27.663312 22.0584286,27.7940372 21.9359106,28.0062448 C21.8133925,28.2184523 21.8133925,28.4799027 21.9359106,28.6921103 C22.0584286,28.9043178 22.2848514,29.035043 22.5298875,29.035043 L28.4452657,29.035043 C28.8240588,29.035043 29.1311312,28.7279706 29.1311312,28.3491775 C29.1311312,27.9703845 28.8240588,27.663312 28.4452657,27.663312 L28.4452657,27.663312 Z M28.4452657,30.7945843 L22.5298875,30.7945843 C22.1510945,30.7945843 21.8440221,31.1016568 21.8440221,31.4804498 C21.8440221,31.8592429 22.1510945,32.1663153 22.5298875,32.1663153 L28.4452657,32.1663153 C28.8240588,32.1663153 29.1311312,31.8592429 29.1311312,31.4804498 C29.1311312,31.1016568 28.8240588,30.7945843 28.4452657,30.7945843 L28.4452657,30.7945843 Z M33.6646174,24.8792062 L31.2293716,24.8792062 C30.8505785,24.8792062 30.5435061,25.1862786 30.5435061,25.5650717 C30.5435061,25.9438647 30.8505785,26.2509372 31.2293716,26.2509372 L33.6646174,26.2509372 C33.9096536,26.2509372 34.1360763,26.1202119 34.2585944,25.9080044 C34.3811125,25.6957969 34.3811125,25.4343464 34.2585944,25.2221389 C34.1360763,25.0099314 33.9096536,24.8792062 33.6646174,24.8792062 L33.6646174,24.8792062 Z M33.6646174,27.663312 L31.2293716,27.663312 C30.9843354,27.663312 30.7579127,27.7940372 30.6353946,28.0062448 C30.5128765,28.2184523 30.5128765,28.4799027 30.6353946,28.6921103 C30.7579127,28.9043178 30.9843354,29.035043 31.2293716,29.035043 L33.6646174,29.035043 C34.0434105,29.035043 34.3504829,28.7279706 34.3504829,28.3491775 C34.3504829,27.9703845 34.0434105,27.663312 33.6646174,27.663312 L33.6646174,27.663312 Z M33.6646174,30.7945843 L31.2293716,30.7945843 C30.8505785,30.7945843 30.5435061,31.1016568 30.5435061,31.4804498 C30.5435061,31.8592429 30.8505785,32.1663153 31.2293716,32.1663153 L33.6646174,32.1663153 C34.0434105,32.1663153 34.3504829,31.8592429 34.3504829,31.4804498 C34.3504829,31.1016568 34.0434105,30.7945843 33.6646174,30.7945843 L33.6646174,30.7945843 Z" id="Shape" fill="#4AB3E2"></path>
                    <circle id="Oval" stroke-opacity="0.995980525" stroke="#DBDCDD" cx="27" cy="27" r="27"></circle>
                </g>
            </g>
        </g>
    </g>
</svg>