<?xml version="1.0" encoding="UTF-8"?>
<svg width="56px" height="56px" viewBox="0 0 56 56" version="1.1" xmlns="http://www.w3.org/2000/svg" xmlns:xlink="http://www.w3.org/1999/xlink">
    <!-- Generator: Sketch 46.1 (44463) - http://www.bohemiancoding.com/sketch -->
    <title>关联 表单 表格 关系</title>
    <desc>Created with Sketch.</desc>
    <defs></defs>
    <g id="九路泊车视觉设计" stroke="none" stroke-width="1" fill="none" fill-rule="evenodd">
        <g id="1-0资产首页" transform="translate(-288.000000, -425.000000)">
            <g id="关联-表单-表格-关系" transform="translate(289.000000, 426.000000)">
                <path d="M20.02075,29 L15.02075,29 L15.02075,17 L31.02075,17 L31.02075,29 L28.02075,29 C27.46875,29 27.02075,29.448 27.02075,30 C27.02075,30.552 27.46875,31 28.02075,31 L31.02075,31 C32.12675,31 33.02075,30.106 33.02075,29 L33.02075,17 C33.02075,15.894 32.12675,15 31.02075,15 L15.02075,15 C13.91475,15 13.02075,15.894 13.02075,17 L13.02075,29 C13.02075,30.106 13.91475,31 15.02075,31 L20.02075,31 C20.57275,31 21.02075,30.552 21.02075,30 C21.02075,29.448 20.57475,29 20.02075,29 L20.02075,29 Z M41.02075,23 L36.02075,23 C35.46875,23 35.02075,23.448 35.02075,24 C35.02075,24.552 35.46875,25 36.02075,25 L41.02075,25 L41.02075,37 L25.02075,37 L25.02075,25 L28.02075,25 C28.57275,25 29.02075,24.552 29.02075,24 C29.02075,23.448 28.57475,23 28.02075,23 L25.02075,23 C23.91475,23 23.02075,23.894 23.02075,25 L23.02075,37 C23.02075,38.106 23.91475,39 25.02075,39 L41.02075,39 C42.12675,39 43.02075,38.106 43.02075,37 L43.02075,25 C43.02075,23.894 42.12675,23 41.02075,23 L41.02075,23 Z" id="Shape" fill="#4AB3E2"></path>
                <circle id="Oval" stroke-opacity="0.995980525" stroke="#DBDCDD" cx="27" cy="27" r="27"></circle>
            </g>
        </g>
    </g>
</svg>