<?xml version="1.0" encoding="UTF-8"?>
<svg width="55px" height="56px" viewBox="0 0 55 56" version="1.1" xmlns="http://www.w3.org/2000/svg" xmlns:xlink="http://www.w3.org/1999/xlink">
    <!-- Generator: Sketch 46.1 (44463) - http://www.bohemiancoding.com/sketch -->
    <title>关系</title>
    <desc>Created with Sketch.</desc>
    <defs></defs>
    <g id="九路泊车视觉设计" stroke="none" stroke-width="1" fill="none" fill-rule="evenodd">
        <g id="1-0资产首页" transform="translate(-165.000000, -425.000000)">
            <g id="关系" transform="translate(165.000000, 426.000000)">
                <circle id="Oval" stroke-opacity="0.995980525" stroke="#DBDCDD" cx="27.5" cy="27" r="27"></circle>
                <path d="M15.468,31.3927143 L24.88,36.9882857 C24.9947955,37.0563483 25.1372815,37.0575927 25.2532482,36.9915454 C25.3692149,36.9254981 25.4408339,36.8023132 25.4408571,36.6688571 L25.4408571,33.105 L39.6795714,33.105 C40.3780538,33.105 40.9442857,32.5387681 40.9442857,31.8402857 C40.9442857,31.1418033 40.3780538,30.5755714 39.6795714,30.5755714 L15.4345714,30.5755714 C15.2657731,30.575242 15.1179789,30.688775 15.0747846,30.8519535 C15.0315903,31.015132 15.1038592,31.186917 15.2507143,31.2701429 L15.468,31.3927143 L15.468,31.3927143 Z M29.7215714,19.3955714 L29.7215714,22.9835714 L16.2647143,22.9835714 C15.5662319,22.9835714 15,23.5498033 15,24.2482857 C15,24.9467681 15.5662319,25.513 16.2647143,25.513 L40.6155714,25.513 C40.7856653,25.5130045 40.9340269,25.3974688 40.9756934,25.2325572 C41.0173599,25.0676456 40.9416826,24.8955044 40.792,24.8147143 L40.5691429,24.6958571 L30.2712857,19.0668571 C30.1563396,19.0039636 30.0167595,19.0062863 29.9039697,19.0729695 C29.7911798,19.1396527 29.7218685,19.26083 29.7215714,19.3918571 L29.7215714,19.3955714 Z" id="Shape" fill="#4AB3E2"></path>
            </g>
        </g>
    </g>
</svg>