<svg viewBox="0 0 18 14" xmlns="http://www.w3.org/2000/svg"><g fill-rule="evenodd" transform=""><path d="m8.65454545.00452526c-2.25900606 0-4.08358787 1.82458182-4.08358787 4.08358788s4.08358787 7.58794346 4.08358787 7.58794346 4.08358785-5.35789902 4.08358785-7.58794346-1.8245818-4.08358788-4.08358785-4.08358788zm0 6.42947879c-1.2743111 0-2.28796768-1.04261819-2.28796768-2.28796769s1.04261818-2.28796768 2.28796768-2.28796768c1.24534951 0 2.28796765 1.04261818 2.28796765 2.28796768s-1.01365652 2.28796769-2.28796765 2.28796769z"/><path d="m17.2561455 13.5296-2.6934303-4.14151111c-.0289617-.08688484-.1158465-.11584647-.1737697-.11584647h-3.1278546c-.1737697.28961617-.376501.57923232-.5502707.86884848h3.3305859l1.9404282 2.9830465h-14.65457774l1.94042829-2.9830465h3.33058586c-.17376969-.28961616-.37650101-.57923231-.55027071-.86884848h-3.12785455c-.08688484 0-.14480807.02896163-.17376969.11584647l-2.69343031 4.14151111c-.11584647.2027313 0 .4633859.1737697.4633859h16.82669895c.231693 0 .3475394-.2606546.2027314-.4633859z"/></g></svg>