<?xml version="1.0" encoding="UTF-8"?>
<svg viewBox="0 0 18 14" version="1.1" xmlns="http://www.w3.org/2000/svg" xmlns:xlink="http://www.w3.org/1999/xlink">
    <!-- Generator: Sketch 47 (45396) - http://www.bohemiancoding.com/sketch -->
    <title>Group</title>
    <desc>Created with Sketch.</desc>
    <defs></defs>
    <g id="Symbols" stroke="none" stroke-width="1" fill-rule="evenodd">
        <g id="底部导航" transform="translate(-132.000000, -5.000000)">
            <g id="Group">
                <g id="地图-(3)" transform="translate(132.000000, 5.000000)">
                    <g id="Group">
                        <path d="M8.65454545,0.00452525818 C6.39553939,0.00452525818 4.57095758,1.82910708 4.57095758,4.08811314 C4.57095758,6.3471192 8.65454545,11.6760566 8.65454545,11.6760566 C8.65454545,11.6760566 12.7381333,6.31815758 12.7381333,4.08811314 C12.7381333,1.8580687 10.9135515,0.00452525818 8.65454545,0.00452525818 L8.65454545,0.00452525818 Z M8.65454545,6.43400405 C7.38023435,6.43400405 6.36657777,5.39138586 6.36657777,4.14603636 C6.36657777,2.90068686 7.40919595,1.85806868 8.65454545,1.85806868 C9.89989496,1.85806868 10.9425131,2.90068686 10.9425131,4.14603636 C10.9425131,5.39138586 9.92885658,6.43400405 8.65454545,6.43400405 L8.65454545,6.43400405 Z" id="Shape"></path>
                        <path d="M17.2561455,13.5296 L14.5627152,9.38808889 C14.5337535,9.30120405 14.4468687,9.27224242 14.3889455,9.27224242 L11.2610909,9.27224242 C11.0873212,9.56185859 10.8845899,9.85147474 10.7108202,10.1410909 L14.0414061,10.1410909 L15.9818343,13.1241374 L1.32725656,13.1241374 L3.26768485,10.1410909 L6.59827071,10.1410909 C6.42450102,9.85147474 6.2217697,9.56185859 6.048,9.27224242 L2.92014545,9.27224242 C2.83326061,9.27224242 2.77533738,9.30120405 2.74637576,9.38808889 L0.0529454545,13.5296 C-0.0629010158,13.7323313 0.0529454545,13.9929859 0.226715152,13.9929859 L17.0534141,13.9929859 C17.2851071,13.9929859 17.4009535,13.7323313 17.2561455,13.5296 L17.2561455,13.5296 Z" id="Shape"></path>
                    </g>
                </g>
            </g>
        </g>
    </g>
</svg>
