<svg viewBox="0 0 16 14" xmlns="http://www.w3.org/2000/svg"><g fill-rule="evenodd" transform=""><path d="m6.45510811 11.7144282c-.05188128-.0753007-.11272693-.1476507-.18235021-.2171992-.13887302-.1389851-.29526391-.2432706-.46891119-.3128565-.18533833-.0698847-.37639144-.104547-.57293523-.104547l-.00056027-.0005602c-.04642797.0005602-.09554524.0033243-.14794943.0090017-.05214275.0054533-.10155882.0112428-.14794943.0172191-.04639061.0059762-.09251975.0177419-.13894772.0349237-.04639061.0174805-.09278122.0319355-.13891036.0434024-.0581937.0229339-.11597653.051844-.17387142.086805l-.13894772.104547c-.05789489.034961-.10973881.075338-.15616678.121766-.06958591.0695485-.13046893.1422346-.18231285.2172365-.05188128.075338-.09524643.1534028-.12994599.2344556-.06988472.1856371-.10454695.3739636-.10454695.5647179s.03492369.3731045.10454695.5470133c.06954855.1624418.17383405.31887.31281913.4692473.13887302.1274808.29526391.2317663.46917266.3130806.17334848.0696233.36443895.1045469.57323406.1045469.19706671 0 .38543051-.0376877.56471789-.1127269.17936209-.0753754.33851699-.1765981.47738999-.3041162.13898506-.1503773.24327056-.3068055.31281914-.46921.08109019-.1733112.121766-.355624.121766-.5470506 0-.1913146-.04041437-.3793422-.121766-.5647179-.0351105-.0815384-.07855033-.1599019-.13039427-.2349785z"/><path d="m15.4604144 2.6914173c-.0349237-.05785753-.0810155-.10973882-.1389478-.15612943-.0578201-.04612914-.1271819-.08680497-.2082348-.12172866-.1618815-.08109019-.3936105-.121766-.6947012-.121766l-.0010085.0002988h-10.76863498l-.08680498-.59067721-.06958591-.4517295v-.08680497c-.02315794-.1274808-.04067583-.21424842-.05214275-.26067639l-.08680497-.27785808c-.02293384-.09255711-.06932445-.19105311-.13898507-.2950398-.04635324-.04612915-.09554523-.08680498-.14765062-.12172867-.05236685-.03496103-.10723626-.06962327-.16516849-.10454694-.12688317-.05789489-.29477834-.08680497-.50331197-.08680497h-1.59786144c-.11593918 0-.22026202.01744316-.31274441.05240421-.09281858.03440076-.17969825.08082873-.26071372.13838745-.13894773.13894773-.20853364.31281914-.20853364.52135275 0 .04639061.00302548.09853336.00874026.15612942.00597625.05785753.01475385.11571506.02618343.17387142.01142958.05815635.0316741.11627532.06058418.17387141.02891009.05785753.05516822.12142985.07836352.19105311.08105283.1042855.17383405.19680525.27782074.27789544.09281858.06958592.22029937.10450961.38244239.10450961h1.18101827l.67751953 3.49079997.26067639 1.33722239.22575269 1.19823733.17387141.88605317.08680498.45172949c.0231953.11545361.06387113.28334876.12172866.50334931.03499839.09308003.07257404.179885.1127643.26067639.040377.08075405.08377949.15612945.12994599.22571535.09251975.1504146.20849627.2718445.347444.3647004.04586767.0346996.09528377.0608083.14768798.0783635.05266566.0174432.11056055.0318982.17383405.0433651.06334821.011467.129946.0172191.19956927.0172191h8.25005821c.3012774 0 .4981201-.0753754.5906398-.2257527.1042855-.1503773.1561668-.3300008.1561668-.5384971 0-.42834743-.2546628-.6425585-.7643245-.6425585h-7.91949709l-.24353203-1.38962659h8.26731462c.3007545 0 .5557161-.08109019.7642498-.24319586.1045469-.08079136.2000548-.19355566.2868971-.33851699.0865062-.1448866.1648697-.31573255.2344556-.51223898.0346996-.10432284.1274435-.3764288.2778581-.81642991l.3647004-1.02496353.3302623-.95534027.2085337-.57289789c.011691-.03466222.0204312-.06958591.0261834-.10454694.0054533-.03466223.0112054-.0726114.0171817-.11272694.0060136-.04041436.009039-.08381685.009039-.12994599.011467-.1270326-.0174431-.24876126-.0871037-.36447631z"/><path d="m12.820968 11.5321153c-.1274808-.1389103-.2839464-.2431958-.4692474-.3130432-.0925571-.0346996-.188065-.060883-.2868598-.0783635-.0985707-.0174806-.1941159-.0262208-.2868971-.0262208l.0005229.0005976c-.0693245-.0005976-.1358849.0023905-.1995319.0087029-.0635723.0062751-.1274808.0180408-.1913146.0352225-.0639085.0168829-.1244927.0370901-.1823502.0605468-.0810528.0346996-.1624045.0781021-.2434947.129946-.0810902.0518813-.1506761.112727-.2085336.1823502-.1389851.1389851-.2431959.2896239-.3127818.4520657-.0463906.0924824-.0781021.185301-.0955452.2778208-.0175552.0925571-.0262208.1853383-.0262208.277858 0 .1968053.0406758.3821436.121766.5557536.0695859.162143.1737967.3185339.3127818.4692473.1159765.1154536.2666899.213987.4517295.2950025.1738714.0810528.3649618.121766.5729726.121766.207936 0 .3992879-.040377.5729352-.121766.1853383-.0693245.3414677-.1675964.4689112-.2950025.138985-.150452.248948-.3068429.3300382-.4692473.034961-.0807914.0608456-.1705845.0783261-.2691552.0175179-.0985334.0262582-.1940786.0262582-.2868598 0-.19688-.0350358-.382181-.1045843-.5557536-.0799697-.1618442-.1899326-.3125576-.3288803-.451468z"/></g></svg>