<svg viewBox="0 0 15 14" xmlns="http://www.w3.org/2000/svg"><path d="m7.00959055.00555315c-2.09677559 0-3.81610236 1.71651575-3.81610236 3.81399409 0 1.20925.57357283 2.28938583 1.40042716 2.98855906-2.6703622.95525197-4.58017716 3.5621181-4.58017716 6.5513799 0 .3802736.25680905.6342579.6370689.6342579.38169291 0 .63708267-.2539843.63708267-.6342717-.00678711-1.5196888.59380823-2.9791164 1.66826924-4.05384139 1.07446101-1.07472494 2.53374111-1.67567872 4.05343155-1.66926487 2.09889764 0 3.81681885-1.71862401 3.81681885-3.8168189 0-2.09747834-1.71792121-3.81399409-3.81681885-3.81399409zm0 6.35948622c-1.40305388-.00465101-2.53886427-1.14171743-2.54196457-2.54477559.00387399-1.40239449 1.13957121-2.53840568 2.54196457-2.54266732 1.40305703.00348813 2.53980934 1.13961243 2.54407284 2.54266732-.00349748 1.40371536-1.1403585 2.54089041-2.54407284 2.54477559zm5.02394685 2.09749213c-.1158067-.12119385-.2761417-.18975152-.4437697-.18975152s-.327963.06855767-.4437697.18975152c-.1228429.11547505-.1925098.2765784-.1925098.44517519 0 .1685968.0696669.32970015.1925098.4451752 1.0780276 1.08083861 1.6501949 2.47987401 1.6501949 4.00730711 0 .3802736.2568091.6342579.6370827.6342579.3816929 0 .6356634-.2539843.6356634-.6342579-.0634961-1.8449134-.7640748-3.56213191-2.0354016-4.8976575z" fill-rule="evenodd" transform=""/></svg>