<?xml version="1.0" encoding="UTF-8"?>
<svg width="15px" height="14px" viewBox="0 0 15 14" version="1.1" xmlns="http://www.w3.org/2000/svg" xmlns:xlink="http://www.w3.org/1999/xlink">
    <!-- Generator: Sketch 47 (45396) - http://www.bohemiancoding.com/sketch -->
    <title>账户</title>
    <desc>Created with Sketch.</desc>
    <defs></defs>
    <g id="Symbols" stroke="none" stroke-width="1" fill="none" fill-rule="evenodd">
        <g id="底部导航" transform="translate(-318.000000, -8.000000)" fill="#666666">
            <g id="Group">
                <g id="账户" transform="translate(318.000000, 8.000000)">
                    <path d="M7.00959055,0.00555314961 C4.91281496,0.00555314961 3.19348819,1.7220689 3.19348819,3.81954724 C3.19348819,5.02879724 3.76706102,6.10893307 4.59391535,6.8081063 C1.92355315,7.76335827 0.013738189,10.3702244 0.013738189,13.3594862 C0.013738189,13.7397598 0.270547244,13.9937441 0.650807087,13.9937441 C1.0325,13.9937441 1.28788976,13.7397598 1.28788976,13.3594724 C1.28110265,11.8397836 1.88169799,10.380356 2.956159,9.30563101 C4.03062001,8.23090607 5.48990011,7.62995229 7.00959055,7.63636614 C9.10848819,7.63636614 10.8264094,5.91774213 10.8264094,3.81954724 C10.8264094,1.7220689 9.10848819,0.00555314961 7.00959055,0.00555314961 L7.00959055,0.00555314961 Z M7.00959055,6.36503937 C5.60653667,6.36038836 4.47072628,5.22332194 4.46762598,3.82026378 C4.47149997,2.41786929 5.60719719,1.2818581 7.00959055,1.27759646 C8.41264758,1.28108459 9.54939989,2.41720889 9.55366339,3.82026378 C9.55016591,5.22397914 8.41330489,6.36115419 7.00959055,6.36503937 L7.00959055,6.36503937 Z M12.0335374,8.4625315 C11.9177307,8.34133765 11.7573957,8.27277998 11.5897677,8.27277998 C11.4221397,8.27277998 11.2618047,8.34133765 11.145998,8.4625315 C11.0231551,8.57800655 10.9534882,8.7391099 10.9534882,8.90770669 C10.9534882,9.07630349 11.0231551,9.23740684 11.145998,9.35288189 C12.2240256,10.4337205 12.7961929,11.8327559 12.7961929,13.360189 C12.7961929,13.7404626 13.053002,13.9944469 13.4332756,13.9944469 C13.8149685,13.9944469 14.068939,13.7404626 14.068939,13.360189 C14.0054429,11.5152756 13.3048642,9.79805709 12.0335374,8.4625315 L12.0335374,8.4625315 Z" id="Shape"></path>
                </g>
            </g>
        </g>
    </g>
</svg>