<svg viewBox="0 0 14 14" xmlns="http://www.w3.org/2000/svg"><path d="m4.91764922 3.51260564h3.37293535c1.04373771 0 1.83990863-2.26342501 1.83990863-2.26342501 0-.67785431-.0678681-1.19069261-1.22684335-1.22682907-1.15861884-.03649283-1.43619243.81016933-2.26885618.81016933-.8534618 0-1.28035664-.665595-2.33056612-.81016933-1.04986736-.14524431-1.22648695.54897476-1.22648695 1.22682907.00000001.00001425.79582881 2.26342501 1.83990862 2.26342501zm3.55705308.69967874h-3.55705308c-3.93897334 0-4.90631844 7.73844712-4.90631844 7.73844712 0 1.0164536.82381139 2.0373548 1.83990861 2.0373548h9.68953061c1.0161115 0 1.8398944-1.0209012 1.8398944-2.0373548.0000142.0000143-.9676587-7.73844712-4.9059621-7.73844712zm.40373044 5.94729072c.23731744 0 .42964606.1926564.42964606.4299881 0 .2373032-.19231437.4299597-.42964606.4299597h-1.74410068v1.1279563c0 .2373032-.19231436.4299882-.42928967.4299882-.23731744 0-.42961754-.192685-.42961754-.4299882v-1.1279563h-1.75536214c-.23730318 0-.42961754-.1926565-.42961754-.4299597 0-.2373317.19231436-.4299881.42961754-.4299881h1.75536214v-.54553934h-1.75536214c-.23730318 0-.42961754-.19232862-.42961754-.42964606s.19231436-.43031603.42961754-.43031603h1.18660142l-1.21489762-2.15906408c-.11865872-.20595641-.04808216-.46850522.15719-.58714968.20560003-.11867297.4681631-.04842427.58682182.15683364l1.46279228 2.58938012h.07398351l1.46279228-2.58938012c.11864446-.20525791.38120752-.27552086.5864797-.15683364.2056143.11864446.27620511.38119327.15753214.58714968l-1.21489763 2.15906408h1.11397214c.23731745 0 .42964606.19298434.42964606.43031603 0 .23730318-.19231436.42964606-.42964606.42964606h-1.74410067v.54553934z" fill-rule="evenodd" transform=""/></svg>