<svg viewBox="0 0 11 16" xmlns="http://www.w3.org/2000/svg"><g fill-rule="evenodd" transform=""><path d="m5.25535934 12.8321872c-.44854725 0-.81345581.3656511-.81345581.815166 0 .4494808.36492555.8151659.81345581.8151659.44856422 0 .81350676-.365668.81350676-.8151659-.00001699-.4495149-.36494254-.815166-.81350676-.815166z"/><path d="m9.27998671.00117447h-8.04922077c-.67714378 0-1.22804819.55205106-1.22804819 1.23060425v13.53644258c0 .6785702.55090441 1.2306042 1.22804819 1.2306042h8.04920378c.67714378 0 1.22803118-.552034 1.22803118-1.2306042v-13.53644258c.000017-.67855319-.55087041-1.23060425-1.22801419-1.23060425zm-8.04922077.82040851h8.04920378c.22572592 0 .40936072.18403404.40936072.41021276v10.14141276h-8.86790824v-10.14142978c0-.22617872.1836348-.41019574.40934374-.41019574zm8.04922077 14.35681702h-8.04922077c-.22570894 0-.40936072-.184-.40936072-.4101957v-2.5043745h8.86792522v2.5043915c.00001699.2261957-.18361782.4101787-.40934373.4101787z"/></g></svg>