<svg viewBox="0 0 20 14" xmlns="http://www.w3.org/2000/svg"><path d="m19.3867417 8.51133345-.0012305-.03548109-.0025637-.06655267-.0021535-.04358227-.0035891-.05711839c-.0012305-.01620235-.0023585-.03230215-.0037942-.04860704-.0012306-.01630489-.0027688-.03260979-.0042044-.04901723-.0018458-.01835582-.003384-.03671164-.0056401-.05496492l-.0035891-.03332761c-.2040675-1.79558913-1.5125608-3.25585121-3.2295993-3.68531594-.2781061-2.48295828-3.0476818-4.43441808-6.43038306-4.43441808-3.38270123 0-6.15227697 1.9514598-6.43028052 4.43452063-1.71703851.42946472-3.02542924 1.88972681-3.22949677 3.68531594-.00123055.01107502-.00266621.02225259-.00379422.03332761-.00205093.01825328-.00369167.0366091-.00533241.05496492-.00492042.05146421-.00881796.10302108-.0116903.15464011-.00082038.01456161-.0017433.02891812-.00235857.04358227-.00102547.02215004-.00184584.04450517-.00256367.06655267l-.00112801.03548109c-.00090639.03437973-.0013508.0687701-.0013331.10316177v2.15286108c0 .5946672.48196852 1.0765331 1.0765331 1.0765331h1.13067766c.24949562 1.2281994 1.33495027 2.1528612 2.63677802 2.1528612l.01866346-.0002051.01507434.0002051c1.3019303 0 2.38789768-.9245592 2.63718821-2.1528612h4.38006844c.2495982 1.2281994 1.3349503 2.1528612 2.6369831 2.1528612l.0186635-.0002051.0149718.0002051c1.3018277 0 2.3877951-.9245592 2.6371882-2.1528612h1.0967347c.5944621 0 1.0765331-.4818659 1.0765331-1.076328v-2.15306618c0-.03445562-.0006152-.06891124-.0013331-.10316177zm-4.365917-4.20256046h-4.815891v-3.2123715c2.4475797.16294638 4.4592343 1.49830684 4.815891 3.2123715zm-5.89242413-3.20755182v3.20755182h-4.74913327c.35327267-1.69837505 2.33190729-3.02481396 4.74913327-3.20755182zm-2.62939468 10.32971353c-.02676463.0640916-.04717138.1305417-.06101516.1987351-.15074335.7418214-.80663073 1.2817287-1.5637315 1.29024-.88323296-.0082037-1.59931514-.7289005-1.59931514-1.6141844 0-.8903086.7242859-1.61449198 1.61469711-1.61449198.89041122 0 1.61469711.72428588 1.61469711 1.61449198.00010255.041839-.00215347.083678-.00533242.1252093zm9.68787501 0c-.0266621.0640916-.0470688.1306442-.0609126.1987351-.1508459.7418214-.8067333 1.2817287-1.563629 1.29024-.8832329-.0082037-1.5995202-.7289005-1.5995202-1.6141844 0-.8903086.7243885-1.61449198 1.6146971-1.61449198.8903087 0 1.6146971.72428588 1.6146971 1.61449198.0001026.041839-.0020509.083678-.0053324.1252093zm1.0279261-.6637835c-.2493931-1.22819933-1.3352579-2.15265598-2.6371882-2.15265598-1.302238 0-2.3884104.92486684-2.6373933 2.15368148-.0109725-.0004102-.0218424-.0010255-.0332251-.0010255h-4.38006844c-.24939308-1.22819933-1.33536046-2.15265598-2.63718821-2.15265598-1.3021354 0-2.38841042.92486684-2.63729076 2.15368148-.01097247-.0004102-.02194495-.0010255-.03322506-.0010255h-1.13067766v-2.15265598c0-.02553408.00030764-.05096561.00092292-.07639714.00010255-.00953682.00051273-.01907365.00082037-.02850792.00082037-.0277901.00205093-.05547766.00379422-.08306266l.00215348-.03496836.00328149-.04440263.00194838-.02061185c.12100486-1.3502297 1.08586484-2.49146964 2.42942901-2.83028326.04881213-.01230558.09608607-.02789264.14161671-.04645356.21234582-.04326841.42851332-.06501571.64522255-.06491193h10.7643056c.2208851 0 .436848.02235513.6453251.06491193.0456332.01845837.092702.03414798.1416167.04645356 1.3435642.33871107 2.3085267 1.48015611 2.429429 2.83028326l.0020509.02061185c.0012306.01476669.0021535.02943084.0033841.04440263l.0020509.03496836c.0008204.01230558.0016407.02461116.0020509.03691673l.0018459.04604338.0008203.02850793c.0006153.02543153.0010255.05086306.0010255.07639714v2.15265602h-1.0968373z" fill="#fff" fill-rule="evenodd" transform=""/></svg>